<svg id="ebxntNiqWjI1" xmlns="http://www.w3.org/2000/svg" xmlns:xlink="http://www.w3.org/1999/xlink" viewBox="0 0 1500 2800" shape-rendering="geometricPrecision" text-rendering="geometricPrecision">
<style><![CDATA[
#ebxntNiqWjI155_to {animation: ebxntNiqWjI155_to__to 3000ms linear infinite normal forwards}@keyframes ebxntNiqWjI155_to__to { 0% {transform: translate(1500px,1238.400513px)} 16.666667% {transform: translate(1500px,1269.89939px)} 33.333333% {transform: translate(1500px,1227.44064px)} 50% {transform: translate(1500px,1269.89939px)} 66.666667% {transform: translate(1500px,1236.79939px)} 83.333333% {transform: translate(1500px,1269.89939px)} 100% {transform: translate(1500px,1238.400513px)}} #ebxntNiqWjI172_to {animation: ebxntNiqWjI172_to__to 3000ms linear infinite normal forwards}@keyframes ebxntNiqWjI172_to__to { 0% {transform: translate(1500.5px,1139.9px)} 23.333333% {transform: translate(1500.5px,1194.719817px)} 46.666667% {transform: translate(1500.5px,1153.940751px)} 73.333333% {transform: translate(1513.552385px,1189.488867px)} 100% {transform: translate(1500.5px,1139.9px)}} #ebxntNiqWjI172_tr {animation: ebxntNiqWjI172_tr__tr 3000ms linear infinite normal forwards}@keyframes ebxntNiqWjI172_tr__tr { 0% {transform: rotate(0deg)} 33.333333% {transform: rotate(4.910127deg)} 50% {transform: rotate(4.910127deg)} 66.666667% {transform: rotate(-6.225642deg)} 83.333333% {transform: rotate(-6.225642deg)} 100% {transform: rotate(-0.443519deg)}} #ebxntNiqWjI173_to {animation: ebxntNiqWjI173_to__to 3000ms linear infinite normal forwards}@keyframes ebxntNiqWjI173_to__to { 0% {transform: translate(1847.547546px,370.19664px)} 16.666667% {transform: translate(1838.087199px,387.325022px)} 43.333333% {transform: translate(1835.610022px,358.489864px)} 66.666667% {transform: translate(1834.700658px,382.354237px)} 86.666667% {transform: translate(1829.019225px,360.808173px)} 100% {transform: translate(1847.547546px,370.19664px)}} #ebxntNiqWjI180_to {animation: ebxntNiqWjI180_to__to 3000ms linear infinite normal forwards}@keyframes ebxntNiqWjI180_to__to { 0% {transform: translate(1159.652374px,350.396652px)} 23.333333% {transform: translate(1163.98765px,379.448191px)} 50% {transform: translate(1158.016376px,358.310208px)} 80% {transform: translate(1168.468103px,372.316168px)} 100% {transform: translate(1159.652374px,350.396652px)}} #ebxntNiqWjI234_to {animation: ebxntNiqWjI234_to__to 3000ms linear infinite normal forwards}@keyframes ebxntNiqWjI234_to__to { 0% {transform: translate(1398.327271px,736.071289px)} 50% {transform: translate(1584.682415px,736.805071px)} 100% {transform: translate(1398.327271px,736.071289px)}} #ebxntNiqWjI242_tr {animation: ebxntNiqWjI242_tr__tr 3000ms linear infinite normal forwards}@keyframes ebxntNiqWjI242_tr__tr { 0% {transform: translate(1303.549988px,545.700714px) rotate(0deg)} 33.333333% {transform: translate(1303.549988px,545.700714px) rotate(-18.684463deg)} 66.666667% {transform: translate(1303.549988px,545.700714px) rotate(3.916361deg)} 100% {transform: translate(1303.549988px,545.700714px) rotate(0deg)}} #ebxntNiqWjI245_tr {animation: ebxntNiqWjI245_tr__tr 3000ms linear infinite normal forwards}@keyframes ebxntNiqWjI245_tr__tr { 0% {transform: translate(1690.599976px,545.686584px) rotate(0deg)} 0.666667% {transform: translate(1690.599976px,545.686584px) rotate(0deg)} 33.333333% {transform: translate(1690.599976px,545.686584px) rotate(15.691397deg)} 66.666667% {transform: translate(1690.599976px,545.686584px) rotate(-5.11727deg)} 100% {transform: translate(1690.599976px,545.686584px) rotate(0deg)}} #ebxntNiqWjI247_tr {animation: ebxntNiqWjI247_tr__tr 3000ms linear infinite normal forwards}@keyframes ebxntNiqWjI247_tr__tr { 0% {transform: translate(695.982972px,2063.00655px) rotate(1.761073deg)} 16.666667% {transform: translate(695.982972px,2063.00655px) rotate(-4.182059deg)} 33.333333% {transform: translate(695.982972px,2063.00655px) rotate(2.11902deg)} 50% {transform: translate(695.982972px,2063.00655px) rotate(-3.500466deg)} 66.666667% {transform: translate(695.982972px,2063.00655px) rotate(-0.350301deg)} 83.333333% {transform: translate(695.982972px,2063.00655px) rotate(-3.210666deg)} 100% {transform: translate(695.982972px,2063.00655px) rotate(2.573079deg)}}
]]></style>
<g transform="translate(-750.017028-97.19345)"><g><g><g><path d="M1870.4,2462.6c.9-10.9,1.6-22.7,2.2-34.6c39.5-.6,57.8,5.4,62.3,33.4c5,31-21.3,74.7,6,102c21,21,75,51,75,51c2.9.3,5.7.6,8.4,1-56.3,8.6-94.3,27.8-119.4,52.2-24.3-14.7-98.3-60.8-141.7-103.6-13.8-13.6-24.5-26.8-29.5-38.6-3.7-8.6-4.3-16.5-.8-23.1c22.7-43.4,72.4-15.1,137.5-39.7Z" fill="#e08f62"/><path d="M1905,2667.6c-12.9,12.5-22.3,26.3-29,40.8-55.2-48-139.3-89.4-171.8-127.6c18.2-3.2,37.9-8.6,59.1-16.8c43.4,42.8,117.4,88.9,141.7,103.6Z" fill="#e08f62"/><path d="M1129.6,2462.6c65.1,24.6,114.9-3.6,137.4,39.8c3.4,6.6,2.8,14.5-.8,23.1-5,11.8-15.7,25-29.5,38.6-43.4,42.7-117.4,88.9-141.7,103.6-25-24.3-63.1-43.6-119.4-52.2c2.7-.4,5.5-.7,8.4-1c0,0,54-30,75-51c27.3-27.3,1-71,6-102c4.5-28,22.8-34,62.3-33.4.6,11.8,1.4,23.6,2.3,34.5Z" fill="#e08f62"/><path d="M1427.4,2494.3c-.8-16.6-1.1-32.2-1.1-46.6c32.8,4.4,64.9,34.3,32.6,93.6-.9,1.7-1.9,3.4-2.9,5.1c0,0-56.2,52.6-160.2,34.4-18.2-3.2-37.9-8.6-59.1-16.8c13.8-13.6,24.5-26.8,29.5-38.6c86.4,10.7,136.8-13.3,161.2-31.1Z" fill="#e08f62"/><path d="M1236.7,2564c21.1,8.2,40.8,13.6,59.1,16.8-32.5,38.2-116.5,79.6-171.8,127.6-6.7-14.5-16.1-28.3-29-40.8c24.3-14.7,98.3-60.8,141.7-103.6Z" fill="#e08f62"/><path d="M1458.9,2541.3c3.9,21.9,8.2,68.9-12.9,119.1c0,0,.4,1,1.1,2.8-83.1,17.6-143.4,63.2-217.1,114.2-24.4,16.9-57.7,28.9-95.3,34.5c5.7-31.1,5.3-69-10.7-103.5c55.2-48,139.3-89.4,171.8-127.6c104.1,18.2,160.2-34.4,160.2-34.4c1-1.8,2-3.5,2.9-5.1Z" fill="#e08f62"/><path d="M1572.6,2494.3c24.5,17.8,74.9,41.8,161.3,31.1c5,11.8,15.7,25,29.5,38.6-21.1,8.2-40.8,13.6-59.1,16.8-104.1,18.2-160.2-34.4-160.2-34.4-1-1.7-2-3.4-2.9-5.1-32.4-59.3-.2-89.2,32.6-93.6-.1,14.5-.4,30.1-1.2,46.6Z" fill="#e08f62"/><path d="M1876,2708.4c-16,34.5-16.3,72.4-10.7,103.5-37.6-5.6-70.9-17.6-95.3-34.5-73.7-51-134-96.7-217.1-114.2.7-1.8,1.1-2.8,1.1-2.8-21.1-50.2-16.8-97.2-12.9-119.1.9,1.7,1.9,3.4,2.9,5.1c0,0,56.2,52.6,160.2,34.4c32.5,38.2,116.6,79.6,171.8,127.6Z" fill="#e08f62"/><path d="M1091.5,1940.2c18.2,10.2,53.8,27.7,109.2,44.1-13.4,27.8-48.8,84-114,75.9.7-53.2,3.1-96.3,4.8-120Z" fill="#a6b1e1"/><path d="M1459.1,2220.8c5.1,3.4,10.3,6.7,15.5,9.8-8.7,57.8-3.6,110.7-3.6,110.7-13.2,4.9-26.2,9.1-39.1,12.6-139.3,37.7-258-4.2-306.9-26.4-15.5-7-24-12.1-24-12.1-12.8-87.8-15.3-181.2-14.3-255.1c65.2,8.1,100.6-48,114-75.9c61.1,18.1,146.2,34.8,258.2,39c1.4,18-4.5,35.8-10.9,53.6-7.1,19.6-14.9,39.4-14.9,59.8c0,15.4,4.5,30.3,9,45c2.4,7.8,4.8,15.7,8.1,23.2-2.7,1.1-5.3,2.3-7.8,3.6c5.3,4.2,10.9,8.3,16.7,12.2Z" fill="#a6b1e1"/><path d="M1908.5,1940.2c1.6,23.7,4.1,66.8,4.8,120-65.2,8.1-100.6-48-114-75.9c55.4-16.3,91-33.8,109.2-44.1Z" fill="#a6b1e1"/><path d="M1568.1,2353.9c-12.9-3.5-25.9-7.6-39.1-12.6c0,0,3.7-38.3-.5-85.3-18.7-6.8-36.8-15.3-53.9-25.5-5.3-3.1-10.4-6.4-15.5-9.8-3.7-4.8-6.6-10.2-9-15.9-3.2-7.5-5.7-15.4-8.1-23.2-4.5-14.7-9-29.6-9-45c0-20.4,7.9-40.1,14.9-59.8c6.5-17.9,12.3-35.6,10.9-53.6c13.3.5,27,.8,41.1.9c132.6-1.1,231-19.7,299.3-40c13.4,27.8,48.8,84,114,75.9c1,73.9-1.5,167.4-14.3,255.1c0,0-8.5,5.1-24,12.1-48.8,22.6-167.5,64.4-306.8,26.7Z" fill="#a6b1e1"/><path d="M1124,2708.4c16,34.5,16.3,72.4,10.7,103.5-81.7,12.1-183.7-6-259.7-69.8.6-.6,1.3-1.2,2-1.7c0,0-32.6-106.5,98.6-125c56.3,8.6,94.3,27.8,119.4,52.2c12.9,12.5,22.3,26.3,29,40.8Z" fill="#fff"/><path d="M1134.7,2811.9c37.6-5.6,70.9-17.6,95.3-34.5c73.7-51,134-96.7,217.1-114.2c3.5,9.6,13.2,41.9-1.1,72.2c0,0-74,20-122,50s-117,89-249,85-205-75-205-75-15-34.8,5-53.3c76,63.8,178,81.9,259.7,69.8Z" fill="#fff"/><path d="M1865.3,2811.9c81.7,12.1,183.7-6,259.7-69.8c20.1,18.5,5,53.3,5,53.3s-73,71-205,75-201-55-249-85-122-50-122-50c-14.3-30.3-4.6-62.7-1.1-72.2c83.1,17.6,143.4,63.2,217.1,114.2c24.4,16.9,57.7,28.9,95.3,34.5Z" fill="#fff"/><path d="M1905,2667.6c25-24.3,63.1-43.6,119.4-52.2c131.3,18.4,98.6,125,98.6,125c.7.5,1.4,1.1,2,1.7-76,63.8-178,82-259.7,69.8-5.7-31.1-5.3-69,10.7-103.5c6.7-14.5,16.1-28.3,29-40.8Z" fill="#fff"/><path d="M1426.3,2447.7c0,14.4.3,30.1,1.1,46.6-24.5,17.8-74.9,41.8-161.3,31.1c3.7-8.6,4.3-16.5.8-23.1-22.6-43.4-72.3-15.2-137.4-39.8-.9-10.9-1.6-22.7-2.2-34.6-1.8-37.2-2.3-76.7-2.4-100.5c49,22.3,167.6,64.2,306.9,26.4-2.1,17.8-5.4,50.7-5.5,93.9Z" fill="#f5b971"/><path d="M1872.7,2428c-.6,11.9-1.3,23.7-2.2,34.6-65.1,24.6-114.9-3.6-137.4,39.8-3.4,6.6-2.8,14.5.8,23.1-86.4,10.7-136.8-13.3-161.3-31.1.8-16.6,1.1-32.2,1.1-46.6-.1-43.2-3.3-76.1-5.6-93.8c139.3,37.7,258-4.2,306.9-26.4-.1,23.7-.5,63.1-2.3,100.4Z" fill="#f5b971"/><path d="M1000,1977.1c-.9,25.9-10.7,57.5-27,69.3-27.5,19.8-49.1,13-65.2-2.1-25.1,7.6-44.3-3-58.4-18.5-104.2,6.2-60.4-194.4-60.4-194.4c28.7-132,74.8-249.4,149.7-392.4c23.2,23.2,81,72.8,171,97.8-6.1,34.6-12.2,73.4-17.5,115-22.1,41.7-59,119.1-84.2,213.6c0,0,22,61,19,93c0,0-7.8,16-27,18.7Z" fill="#f5b971"/><path d="M2150.6,2025.8c-14.1,15.5-33.4,26.1-58.4,18.5-16,15.1-37.7,21.9-65.2,2.1-16.3-11.8-26.1-43.3-27-69.3-19.2-2.6-27-18.7-27-18.7-3-32,19-93,19-93-25.1-94.5-62-171.9-84.2-213.6-5.3-41.6-11.4-80.4-17.5-115c90-24.9,147.7-74.5,171-97.8c74.9,143,121,260.4,149.7,392.4c0,0,43.9,200.5-60.4,194.4Z" fill="#f5b971"/><path d="M1799.3,1984.3c-68.4,20.2-166.8,38.8-299.3,40-14.1-.1-27.8-.4-41.1-.9-112-4.2-197.1-20.9-258.2-39-55.3-16.4-91-33.9-109.2-44.1-9.8-5.5-14.5-8.9-14.5-8.9-3.2-96.1,4.2-193.7,15.2-279.6c5.3-41.6,11.4-80.4,17.5-115-90-24.9-147.7-74.5-171-97.8-7.8-7.8-11.7-12.6-11.7-12.6c66-127,168-266,234-305c63.9-37.8,189.8-41.8,337.6-42c.9,0,1.8,0,2.7,0c147.8.2,273.7,4.2,337.6,42c66,39,168,178,234,305c0,0-3.9,4.8-11.7,12.6-23.2,23.2-81,72.8-171,97.8c6.1,34.6,12.2,73.4,17.5,115c10.9,85.9,18.3,183.5,15.2,279.6c0,0-4.7,3.4-14.5,8.9-18.1,10.2-53.7,27.7-109.1,44Z" fill="#424874"/><g><path d="M1980.1,1823.3c27.6,1.6,49,24.2,74.5,34.6c25.3,10.4,54.2,8.5,80.3.4s49.8-22.1,73.4-36c11.1,43.6,13.6,85.9,8,130.6-2.3,18.2-6.2,36.8-17,51.7s-29.8,25-47.6,20.3c-11.7,17.1-38.9,23.1-58.9,17.5-15.1,12.1-38.3,19.7-56.1,12.1-7.1-3.1-13-8.4-17.9-14.3-14.4-17.2-21.7-40-20-62.3-11.3-2.1-23.5-9.4-28.9-19.6c3.5-30.7,8.2-62.6,19.5-91.4-4.2-13.6-7.4-29.4-9.3-43.6Z" fill="#f5e8c7"/><path d="M1019.9,1823.3c-27.6,1.6-49,24.2-74.5,34.6-25.3,10.4-54.2,8.5-80.3.4s-49.8-22.1-73.4-36c-11.1,43.6-13.6,85.9-8,130.6c2.3,18.2,6.2,36.8,17,51.7c10.7,14.8,29.8,25,47.6,20.3c11.7,17.1,38.9,23.1,58.9,17.5c15.1,12.1,38.3,19.7,56.1,12.1c7.1-3.1,13-8.4,17.9-14.3c14.4-17.2,21.7-40,20-62.3c11.3-2.1,23.5-9.4,28.9-19.6-3.5-30.7-8.2-62.6-19.5-91.4c4.2-13.6,7.4-29.4,9.3-43.6Z" fill="#f5e8c7"/></g><g><g><g><path d="M2053.1,2639.3c0,0,.6,3-.2,5.8-24.8-4.1-51.2-.1-73,8.9-18.9,7.8-38.9,21-49.5,40.5-4-.9-7.7-2.6-7.7-2.6c13.7-19.2,30.8-34,52.9-42.8c24.7-10.4,51.1-11.9,77.5-9.8Z" fill="#39001b"/><path d="M2053.6,2650c0,0-2.9,6.7-13.7,11.8c0,0-1.8-4.5-11.1-4s-17.8,4.1-17.8,4.1c9,22.4,17,45,23.1,68.3.6,2.2.9,3.3,1.4,5.6-1.4-1.8-2.1-2.8-3.6-4.6-17.3-20.5-36-38-57.1-54.6c0,0-8.9,3.4-14.5,8.9s-1.2,8.9-1.2,8.9c-12.2,4-22.3,2.6-22.3,2.6c7-13.7,20.5-24.1,33.6-31.6c9.5,1.5,14.1,2.4,23.2,4.5c2.1-6.6,3.3-9.9,5.8-16.3c17.4-4.7,36.3-6.8,54.2-3.6Z" fill="#39001b"/></g></g><g><g><path d="M946.9,2639.3c0,0-.6,3,.2,5.8c24.8-4.1,51.2-.1,73,8.9c18.9,7.8,38.9,21,49.5,40.5c4-.9,7.7-2.6,7.7-2.6-13.7-19.2-30.8-34-52.9-42.8-24.7-10.4-51.1-11.9-77.5-9.8Z" fill="#39001b"/><path d="M946.4,2650c0,0,2.9,6.7,13.7,11.8c0,0,1.8-4.5,11.1-4s17.8,4.1,17.8,4.1c-9,22.4-17,45-23.1,68.3-.6,2.2-.9,3.3-1.4,5.6c1.4-1.8,2.1-2.8,3.6-4.6c17.3-20.5,36-38,57.1-54.6c0,0,8.9,3.4,14.5,8.9s1.2,8.9,1.2,8.9c12.2,4,22.3,2.6,22.3,2.6-7-13.7-20.5-24.1-33.6-31.6-9.5,1.5-14.1,2.4-23.2,4.5-2.1-6.6-3.3-9.9-5.8-16.3-17.4-4.7-36.3-6.8-54.2-3.6Z" fill="#39001b"/></g></g></g><path d="M1898.1,2288.9c55.4,28.6,121.4,28.5,182.8,17.7c7.6-1.3,15.9-3.3,20.4-9.5s1.5-17.7-6.2-17.6c37.3-7.9,65.9-36,91.6-64.1c8.7-9.5,17-19.4,23.5-30.5c3.7-6.3,6.8-13.2,7.1-20.5s-3.1-15.1-9.5-18.5c-6.5-3.4-15.9-.7-18.2,6.3c21.5-42.6,22.4-96.8,9.1-142.6-6.4,13.6-26.1,16.2-39.7,9.9-6.9,8.8-18.8,16.8-28.7,22.1s-22,7.2-32.3,3c-8.8,5.7-22.4,9.7-32.9,10.6-18.4,1.5-36.3-9.1-47.1-24-10.9-14.9-15.6-33.4-17.5-51.7-12-1.5-24.3-12.4-27.8-24-8.8-29,8-60.4,20.2-88.2-6.3-13.6-11.7-31.5-16.2-45.8-16.8-5.4-36.9-5.8-53.8-.9c3.4,36.5,3.2,72.2.7,108.8-4,5.5-12.1,9.7-18.5,11.9c15.6,115.5,11.6,232.5-7,347.6Z" fill="#f5b971"/><path d="M1981,1825.3c-15.7-8.6-35.2-9.9-51.8-3.3-1.2,36.7-5.8,70.7-7,107.4-10.6,4.3-11.8,17.6-10.6,29c5.2,50.2,3.7,100.9,2.3,151.3c11.9,18.6,30.5,26.2,52.3,29.6s44.3-1,64.6-9.8c-4.4-5.1-10.4-10.6-14.8-15.7c26.4-2.8,51.5-16.4,68.3-37c3.4,7.7,6.4,14.5,9.8,22.2c1.4,3.1,3,6.5,6.1,8c4,1.8,8.5-.3,12.2-2.6c12.7-8,23.6-18.9,31.5-31.6c3.5,6.3,7.1,11.5,10.6,17.7c2.3,4,5.3,8.6,9.9,8.7c2.9.1,5.5-1.6,7.8-3.3c14.2-10.6,25-25.8,30.4-42.7c5.1-15.8-1.6-33.1-3.5-49.6-7.1,13.5-23.1,21.7-38.3,19.7-7.1,8.6-19.4,12.2-29.3,17.5-9.8,5.2-22.8,8.2-31.3,1.1-19.8,21-57.8,19.5-77.6-1.6-7.7-8.3-12.7-18.8-16.2-29.6-3.8-11.5-6.3-23.4-7.3-35.5-10.3-2.9-23.6-8.3-28.5-17.8c3.3-28.7,10.1-63.1,20.8-89.9-2.2-13.2-8-28.9-10.4-42.2Z" fill="#f5e8c7"/></g><g><path d="M2198.1,1963.4c-1.9,21.6-17.6,41.4-38.2,48.1c7.3-10.9,11.9-23,16.4-35.3-19,25.3-45.5,45-75.2,55.9c10.4-13.5,17.5-28.2,24.4-43.8-9.6,12.8-21.6,23.5-33.3,34.4-8.4,7.8-18.2,15.4-29.7,16.1-13.5.8-25.9-8.7-32.6-20.5-6.6-11.8-8.6-25.6-10.2-39-.3-2.1-1.9-2.7-2.8-4.6c6.1-4.6,12.2-9.1,18.3-13.7-12.9,4.9-28.9.4-39.6-8.3c1.7-29.7,6.7-60.3,18.9-87.4-28.2-89.2-58.9-181.4-112.4-258.1c0,0-22.3-149.7-43.3-221.7c8.9,8.6,24.1,8.8,34.9,2.9-2.1,20.7-8.6,43.1-16.3,62.4c1.5,5.7,3.3,11.1,4.9,16.8c18.3-40.1,27.9-84,28.1-128.1c14.9,44.2,24.1,90.4,24.4,137c19.2.9,38.5-4.2,56-12.2-27.4,26.3-61.9,40.9-97,55.4.6,5.3-.2,10.5.3,15.8c57.6-20.9,112.2-49.9,161.9-85.9c3.9,7.4,8,13.3,11.9,20.7-29.1,36.7-64.5,66.6-105.4,89.4c60.2,128.4,116.1,258.4,125.9,399.8c15.6,8.2,35.7,6,48.3-6.3.3,6.1-.3,12.3-1.9,18.1c16.2-4.2,30.9-13.7,40.9-27.1c1.1,5.9-.4,13.3-3.5,18.5c9.8-2.3,18.9-7.8,25.4-15.4.4,8,1.2,8.1.5,16.1Z" opacity="0.2" fill="#39001b"/><path d="M801.9,1963.4c1.9,21.6,17.6,41.4,38.2,48.1-7.3-10.9-11.9-23-16.4-35.3c19,25.3,45.5,45,75.2,55.9-10.4-13.5-17.5-28.2-24.4-43.8c9.6,12.8,21.6,23.5,33.3,34.4c8.4,7.8,18.2,15.4,29.7,16.1c13.5.8,25.9-8.7,32.6-20.5c6.6-11.8,8.6-25.6,10.2-39c.3-2.1,1.9-2.7,2.8-4.6-6.1-4.6-12.2-9.1-18.3-13.7c12.9,4.9,28.9.4,39.6-8.3-1.7-29.7-6.7-60.3-18.9-87.4c28.2-89.2,58.9-181.4,112.4-258.1c0,0,22.3-149.7,43.3-221.7-8.9,8.6-24.1,8.8-34.9,2.9c2.1,20.7,8.6,43.1,16.3,62.4-1.5,5.7-3.3,11.1-4.9,16.8-18.3-40.1-27.9-84-28.1-128.1-14.9,44.2-24.1,90.4-24.4,137-19.2.9-38.5-4.2-56-12.2c27.4,26.3,61.9,40.9,97,55.4-.6,5.3.2,10.5-.3,15.8-57.6-20.9-112.2-49.9-161.9-85.9-3.9,7.4-8,13.3-11.9,20.7c29.1,36.7,64.5,66.6,105.4,89.4-60.2,128.4-116.1,258.4-125.9,399.8-15.6,8.2-35.7,6-48.3-6.3-.3,6.1.3,12.3,1.9,18.1-16.2-4.2-30.9-13.7-40.9-27.1-1.1,5.9.4,13.3,3.5,18.5-9.8-2.3-18.9-7.8-25.4-15.4-.4,8-1.1,8.1-.5,16.1Z" opacity="0.2" fill="#39001b"/><path d="M1812.6,2017.5c18.5,27.3,51.7,43.6,84.6,40.8-1.1-6.6-2-12.1-2.2-18.8-13-4.7-23.1-17.2-23.9-31s7.3-25.8,20.7-29.2c-.8-9.7-1.6-18.9-2.3-28.6-109.3,45.6-227.1,70.5-345.4,73.4.1-.6.1-1.2.2-1.9-14.7,1-29.5,1.6-44.2,2-14.8-.3-29.5-1-44.2-2c.1.6.1,1.3.2,1.9-118.3-2.9-236.1-27.9-345.4-73.4-.8,9.7-1.6,18.9-2.3,28.6c13.4,3.4,21.5,15.4,20.7,29.2s-10.9,26.3-23.9,31c-.2,6.7-1.1,12.2-2.2,18.8c32.9,2.8,66-13.5,84.6-40.8c7.4,1.3,13.9,4.4,18.2,10.5-18,30.6-50.3,52.8-85.4,58.2c50.1,4.9,103-13.9,137.7-50.3c78.7,19.2,161,26.5,242.1,22.7c81.2,3.8,163.4-3.5,242.1-22.7c34.8,36.4,87.6,55.1,137.7,50.3-35.1-5.4-67.5-27.6-85.4-58.2c4-6.1,10.6-9.2,18-10.5Z" opacity="0.2" fill="#39001b"/><path d="M1464.7,2231.3c-9.9,30.6-14.7,63.8-13.8,96-91.4,30-193,28.3-283.3-4.8c44.7,5.9,90.5,8.5,135,1.2s88.4-27.1,117.1-61.9c-12.9,1.4-24.3,3.5-35.8,9.4c8.7-21.5,26-38,42.9-53.9-38.4-8.7-79.6-3-115.1,14.1c22.9-23.5,51.7-41.2,83-51c3.1-1,5.3-3.5,8.3-4.9c17.4,22.8,37.8,39.9,61.7,55.8Z" opacity="0.2" fill="#39001b"/><g><path d="M1725.2,2499.4c-9.4-.4-18.8-1.7-27.9-4-14.2-3.6-29.2-11.1-33.5-25.1-2.1-6.7-1.2-14-.4-21c2-16.3,4.8-29.6,6.7-45.9c63.8,4,129.8-7,186.3-36.9.2-11.7,3-21,3.2-32.7-86.9,31-181.6,39.8-272.7,25.3c6.4,39.6,7,77.3,4.9,117.4-8.4,1.4-19-2.5-24.5-9.1-3.1-3.7-11.8,1.9-12.1,6.7s2.9,9.1,6.1,12.6c20.4,22.5,49.2,36.5,79.1,42.1s60.8,3.2,90.5-3.5c-4-8.5-3.2-19.1,1.9-27-2.9,1.4-4.2,1.2-7.6,1.1Z" opacity="0.2" fill="#39001b"/><path d="M1912.9,2652.8c-23-15.9-45.9-31.8-68.9-47.7-31.5-21.8-63.8-44.5-83.7-77.2-3.7-6-6.9-13.3-4.4-20c3.4-8.9,14.7-11.1,24.1-12c21.5-2,42.9-4.1,64.4-6.1-8.8,4.9-13,17.5-11.1,27.4s7.9,18.5,14.1,26.4c29.4,37.4,66.9,68.4,109.2,90.1-14.5,4.1-31.3,10.6-43.7,19.1Z" opacity="0.2" fill="#39001b"/><path d="M1880.4,2807.5c-5.2-35.6,1.3-73.1,19.7-104s49.1-54.7,84-63.1c-8.9,18.8-10.5,41.9-4.1,61.6s20.6,36.9,38.9,46.8c21.5,11.7,46.9,13.3,71.3,14.6-20.9,25.4-55.4,32.5-87.6,39.3-41,8.5-81.4,14.1-122.2,4.8Z" opacity="0.2" fill="#39001b"/><path d="M1572.3,2736.3c-7.6-16.8-9.9-34.2-7.3-52.5c45,11.7,87.9,31.2,126.4,57.3c29.3,19.9,56.1,43.7,87.3,60.6c60.9,33.2,133.9,37.7,202.5,27.1c35.6-5.5,71.6-15.3,100.5-36.8-3,10.1-2.4,20.3.5,30.4-95.2,56.4-219.1,60.5-318.2,11.4-42.3-21-79.8-50.7-121.8-72.3-23.8-12.1-44.2-18.6-69.9-25.2Z" opacity="0.2" fill="#39001b"/><path d="M1847.9,2803.4c-7.1-29.5-4.7-61.2,6.8-89.3-48.3-51-128-69.5-166.4-128.3c7.4-1.7,14.7-5.3,22.1-7c42.5,54.1,103.6,88,163.4,122c4.4-13.2,11.9-25.4,21.6-35.4-58.3-28.4-109.6-70.2-151.2-119.9-51.8,20.9-113.9,12.5-161.7-16.4-14.9-9-29.1-21.1-34.6-37.6-1.9,4.3-2.4,7-1.7,11.6c2.9,18.5,10.3,36.4,21.4,51.5-1.4.6-2.9,1.2-4.3,1.8-2.5,1-3.4-1.5-5.7-2.7-4.4,37.4.5,75.9,14.2,110.9c63.9,18.2,115.1,57.9,169.9,95.4c32.6,22.3,66.7,41.9,106.2,43.4Z" opacity="0.2" fill="#39001b"/></g><g><path d="M1274.8,2499.4c9.4-.4,18.8-1.7,27.9-4c14.2-3.6,29.2-11.1,33.5-25.1c2.1-6.7,1.2-14,.4-21-2-16.3-4.8-29.6-6.7-45.9-63.8,4-129.8-7-186.3-36.9-.2-11.7-3-21-3.2-32.7c86.9,31,181.6,39.8,272.7,25.3-6.4,39.6-7,77.3-4.9,117.4c7.7,1.3,17.2-1.9,23-7.5c4.7-4.5,12.7-2.1,13.5,4.4.7,5.1-2.7,9.6-6.1,13.4-20.4,22.5-49.2,36.5-79.1,42.1s-60.8,3.2-90.5-3.5c4-8.5,3.2-19.1-1.9-27c3,1.3,4.3,1.1,7.7,1Z" opacity="0.2" fill="#39001b"/><path d="M1087.1,2652.8c23-15.9,45.9-31.8,68.9-47.7c33-22.9,67.1-46.8,86.6-82.2c1.8-3.3,2.8-7,2.4-10.7-1-12.4-14.2-15.2-25-16.2-21.5-2-42.9-4.1-64.4-6.1c8.8,4.9,13,17.5,11.1,27.4s-7.9,18.5-14.1,26.4c-29.4,37.4-66.9,68.4-109.2,90.1c14.5,4,31.3,10.5,43.7,19Z" opacity="0.2" fill="#39001b"/><path d="M1119.6,2807.5c5.2-35.6-1.3-73.1-19.7-104s-49.1-54.7-84-63.1c8.9,18.8,10.5,41.9,4.1,61.6s-20.6,36.9-38.9,46.8c-21.5,11.7-46.9,13.3-71.3,14.6c20.9,25.4,55.4,32.5,87.6,39.3c41,8.5,81.4,14.1,122.2,4.8Z" opacity="0.2" fill="#39001b"/><path d="M1427.7,2736.3c7.6-16.8,9.9-34.2,7.3-52.5-45,11.7-87.9,31.2-126.4,57.3-29.3,19.9-56.1,43.7-87.3,60.6-60.9,33.2-133.9,37.7-202.5,27.1-35.6-5.5-71.6-15.3-100.5-36.8c3,10.1,2.4,20.3-.5,30.4c95.2,56.4,219.1,60.5,318.2,11.4c42.3-21,79.8-50.7,121.8-72.3c23.8-12.1,44.2-18.6,69.9-25.2Z" opacity="0.2" fill="#39001b"/><path d="M1152.1,2803.4c7.1-29.5,4.7-61.2-6.8-89.3c48.3-51,128-69.5,166.4-128.3-7.4-1.7-14.7-5.3-22.1-7-42.5,54.1-103.6,88-163.4,122-4.4-13.2-11.9-25.4-21.6-35.4c58.3-28.4,109.6-70.2,151.2-119.9c51.8,20.9,113.9,12.5,161.7-16.4c14.9-9,29.1-21.1,34.6-37.6c1.9,4.3,2.4,7,1.7,11.6-2.9,18.5-10.3,36.4-21.4,51.5c1.4.6,2.9,1.2,4.3,1.8c2.5,1,3.4-1.5,5.7-2.7c4.4,37.4-.5,75.9-14.2,110.9-63.9,18.2-115.1,57.9-169.9,95.4-32.6,22.3-66.7,41.9-106.2,43.4Z" opacity="0.2" fill="#39001b"/></g><path d="M1915.9,1937.3c2,22,5.2,44.3,14.2,64.5s24.3,38.4,44.9,46.6c-6.4-8.6-10.6-21.8-12-32.4c11.8,12.6,31.7,16.9,47.7,10.4c7.3,17.3,20.6,27.3,39.1,30.5c18.6,3.2,38.5-3.7,51.2-17.6c18.3,12.2,44.1,5.6,54.3-13.8c9.6,3.4,16.4,2,24.7-3.9-5.1,31.1-29,58.3-59.1,67.4-7.1,15.4-18.2,28-31,39.1c7.4.7,14.3,6.4,13.4,13.8-.3,2.7-2.2,5-4,7.1-12.2,14-25.5,27-39.7,38.9c13.3,6.5,25.5,9.1,40,6.4c6.5-1.2,15-2.5,18.2,3.3-5.8,9.4-11.5,18.8-17.3,28.2c20.5-1.5,40.7-7.9,58.4-18.5-32.3,35.5-78.1,58.5-125.9,62.5.7-.6-3.9-4.1-4.3-3.3s.2,1.8.8,2.4c8.5,9.4,19.4,16.6,31.3,20.9-51.7,14.6-106.5,4.3-156.3-15.8c8.6-97.9,12.3-197.7,1.9-295.4-1.7-15.6-.3-28.9,9.5-41.3Z" opacity="0.2" fill="#39001b"/></g><g><g><path d="M1250.5,1088.5c-44.8,3.2-86.4,25.9-120,55.7-33.6,29.7-60.3,66.4-86.8,102.7-41.2,56.6-82.6,113.5-115.6,175.2c3,9.9,6.5,14.4,14.6,21-98.8,148.2-153.3,322.1-159.2,500.2c32.5-170.4,91.9-333.6,175.4-485.7-4.1,3.2-.7,1.4,3.1,4.9c14,13.1,30.5,23.5,48.4,30.5-19.3-16.3-35-36.8-45.7-59.7c35.6-76.6,78-152.9,132.5-217.4c38.7-45.9,94-117.7,153.3-127.4Z" opacity="0.5" fill="#fff"/><path d="M1206.5,1989c-46.8-12.6-88.8-26.7-129.2-53.6.5-185.1,21.7-370.1,63-550.5-19.4,176.7-28.8,352.8-35.1,530.4c45.5,35.4,92.7,59.1,144.8,83.8-18.1-2.5-25.8-5.4-43.5-10.1Z" opacity="0.5" fill="#fff"/><path d="M1089.9,2061c24.9,3.1,48-11.9,68.6-26.2c10.5-7.3,21.9-15.8,24.6-28.3-10.3,34.8-36.9,62.8-70.4,76.8-6.8,75.5-1.5,151.8,13.7,226.1c15.7,15.2,33.1,23.9,53.4,32.1-12.8-1-25.4-4.3-37.1-9.6c3,46.2,7.6,89.4,14.4,135.1c9.4,5.7,19.5,7.2,30.4,8.6-27.7,13.1-61,5-88.6-8.4-6.8,3.3-10.6,10.6-9.8,18.1c2.6,24.5,10.3,50.4.2,72.9-4,8.9-10.4,16.3-17.4,23.1-16.3,15.9-35.8,28.5-56.9,36.9-8-.6-17.4-3.9-24.7-7.1c17.3-7.9,34.8-16.2,49.5-28.4s26.5-28.9,28.9-47.8c2.1-16.1-2.7-32.2-5-48.3s-1.4-34.2,9.6-46.1c12.1-13.1,32-14.5,49.8-14.2-.4-29-1.3-60.8-1.6-89.8-.1-4.5.5-10,4.7-11.7-6.6-4-15.9-10.2-23.2-12.8-10-85-12.6-165.5-13.1-251Z" opacity="0.5" fill="#fff"/></g><g><path d="M1749.5,1088.5c44.8,3.2,86.4,25.9,120,55.7c33.6,29.7,60.3,66.4,86.8,102.7c41.2,56.6,82.6,113.5,115.6,175.2-3,9.9-6.5,14.4-14.6,21c98.8,148.2,153.3,322.1,159.2,500.2-32.5-170.4-91.9-333.6-175.4-485.7c4.1,3.2.7,1.4-3.1,4.9-14,13.1-30.5,23.5-48.4,30.5c19.3-16.3,35-36.8,45.7-59.7-35.6-76.6-78-152.9-132.5-217.4-38.7-45.9-94-117.7-153.3-127.4Z" opacity="0.5" fill="#fff"/><path d="M1793.5,1989c46.8-12.6,88.8-26.7,129.2-53.6-.5-185.1-21.7-370.1-63-550.5c19.4,176.7,28.8,352.8,35.1,530.4-45.5,35.4-92.7,59.1-144.8,83.8c18.1-2.5,25.8-5.4,43.5-10.1Z" opacity="0.5" fill="#fff"/><path d="M1910.1,2061c-24.9,3.1-48-11.9-68.6-26.2-10.5-7.3-21.9-15.8-24.6-28.3c10.3,34.8,36.9,62.8,70.4,76.8c6.8,75.5,1.5,151.8-13.7,226.1-15.7,15.2-33.1,23.9-53.4,32.1c12.8-1,25.4-4.3,37.1-9.6-3,46.2-7.6,89.4-14.4,135.1-9.4,5.7-19.5,7.2-30.4,8.6c27.7,13.1,61,5,88.6-8.4c6.8,3.3,10.6,10.6,9.8,18.1-2.6,24.5-10.3,50.4-.2,72.9c4,8.9,10.4,16.3,17.4,23.1c16.3,15.9,35.8,28.5,56.9,36.9c8-.6,17.4-3.9,24.7-7.1-17.3-7.9-34.8-16.2-49.5-28.4s-26.5-28.9-28.9-47.8c-2.1-16.1,2.7-32.2,5-48.3s1.4-34.2-9.6-46.1c-12.1-13.1-32-14.5-49.8-14.2.4-29,1.3-60.8,1.6-89.8.1-4.5-.5-10-4.7-11.7c6.6-4,15.9-10.2,23.2-12.8c10-85,12.6-165.5,13.1-251Z" opacity="0.5" fill="#fff"/></g></g><g><path d="M1501.4,1079.4c147.8.2,273.7,4.2,337.6,42c66,39,168,178,234,305c0,0-3.9,4.8-11.7,12.6-23.2,23.2-81,72.8-171,97.8" fill="none" stroke="#39001b" stroke-width="20" stroke-miterlimit="10"/><path d="M1487,1079.4c3.9,0,7.8,0,11.6,0" fill="none" stroke="#39001b" stroke-width="20" stroke-miterlimit="10"/><g><path d="M1857,1379.4c8.4,21.8,15.1,44.2,21.2,66.7c3,11.3,5.9,22.6,8.5,33.9l3.7,17.1l3.6,17.1c4.8,22.8,9,45.7,13,68.7s7.5,46,10.7,69.2c1.6,11.6,3.1,23.1,4.5,34.7s2.6,23.2,3.8,34.8s2.2,23.2,3.2,34.9c1,11.6,1.7,23.3,2.4,35s1.3,23.3,1.7,35c.2,5.8.4,11.7.5,17.5s.3,11.7.3,17.5c.3,23.4-.1,46.8-1.1,70.2v0l-.2,5-3.9,2.8-.9.6-.8.6-1.6,1.1c-1.1.7-2.1,1.3-3.2,2-2.1,1.3-4.2,2.5-6.3,3.8-4.2,2.4-8.5,4.7-12.8,7-8.6,4.5-17.3,8.5-26,12.4-17.5,7.7-35.5,14.4-53.5,20.4-36.2,11.9-73.2,20.9-110.5,27.9-18.7,3.4-37.4,6.3-56.2,8.8l-14.1,1.7-7.1.8-7.1.7-14.1,1.4-14.2,1.2c-37.8,3.2-75.6,4.4-113.4,4.5v-20c37.3-.1,74.6-1.3,111.8-4.5l13.9-1.2l13.9-1.4l7-.7l6.9-.8l13.9-1.7c18.5-2.4,36.9-5.3,55.1-8.7c36.6-6.8,72.7-15.6,107.9-27.2c17.6-5.8,34.9-12.3,51.8-19.7c8.4-3.7,16.7-7.6,24.9-11.8c4.1-2.1,8.1-4.3,12-6.5c2-1.1,3.9-2.3,5.8-3.4.9-.6,1.9-1.2,2.8-1.8l1.3-.9l1.2-.8-4.1,7.8v0c.4-23.1.4-46.1-.1-69.2-.1-5.8-.3-11.5-.4-17.3s-.4-11.5-.6-17.3c-.4-11.5-1-23.1-1.6-34.6s-1.4-23.1-2.2-34.6-1.7-23-2.7-34.6c-1-11.5-2.1-23-3.3-34.5-1.1-11.5-2.4-23-3.7-34.5-2.6-23-5.7-45.9-8.9-68.9-3.2-22.9-6.7-45.8-10.8-68.6l-2.9-17.1-2.7-17.2-5.6-34.3c-3.8-23-7.5-45.9-10.7-69Z" fill="#39001b"/></g><g><path d="M1910.5,1336c3.5,49-3.9,99.5-22.1,146.8l-18.2-8.4c23.1-41.8,37.2-89.4,40.3-138.4Z" fill="#39001b"/></g><path d="M2061.3,1438.9c74.9,143,121,260.4,149.7,392.4c0,0,43.9,200.6-60.4,194.4" fill="none" stroke="#39001b" stroke-width="20" stroke-miterlimit="10"/><g><path d="M2181,1969.4c0,5.7-.7,11.2-1.9,16.7s-2.8,10.9-4.8,16.1c-2,5.3-4.5,10.4-7.4,15.4-2.8,5-6.2,9.8-9.9,14.4-1,1.1-1.9,2.3-2.9,3.4s-2,2.2-3.1,3.3c-1.1,1-2.2,2.1-3.4,3.1s-2.3,2-3.6,2.9c-4.9,3.8-10.5,7-16.7,9.2-6.1,2.2-12.7,3.3-19.3,3.3-6.5-.1-12.9-1.3-18.8-3.3l5.8-19.1c8.9,2.1,17.5,2.3,25.7-.3c8.2-2.5,16-7.8,23.1-14.5l2.6-2.6l1.3-1.3l1.2-1.4l2.5-2.8l2.4-2.9c3.1-4,6.2-8.2,9.2-12.5s5.9-8.7,8.9-13.2c3-4.7,5.9-9.3,9.1-13.9Z" fill="#39001b"/></g><g><path d="M2127,1982.4c.2,4.9-.3,9.6-1.1,14.3s-1.9,9.3-3.4,13.9c-1.5,4.5-3.3,9-5.4,13.3-1.1,2.1-2.2,4.3-3.5,6.4l-1.9,3.1-1,1.6-1,1.5c-1.4,2-2.8,4.1-4.4,6l-2.3,3c-.8,1-1.7,1.9-2.5,2.8-3.4,3.8-7.3,7.3-11.6,10.4-4.4,3.1-9.3,5.7-14.7,7.5s-11.2,2.6-16.9,2.4c-2.9,0-5.6-.5-8.4-.9-2.7-.7-5.5-1.2-8-2.2-5.2-1.7-9.9-4.2-14.4-6.8l-3.2-2.1-1.6-1.1-.8-.5c-.3-.2-.6-.5-.9-.7-1.2-.9-2.4-1.9-3.5-2.9l-3.1-3.1c-3.8-4.2-6.8-8.7-9.4-13.3-1.2-2.3-2.4-4.6-3.4-6.9-1.1-2.3-2-4.7-2.9-7-1.6-4.7-3.1-9.5-4.2-14.3-2.3-9.6-3.4-19.4-3.5-29.4l20-.7c.7,8.4,2.1,16.8,4.3,25c2.1,8.2,5,16.1,8.8,23c1.9,3.4,4,6.6,6.3,9.2.6.6,1.2,1.2,1.7,1.8.6.6,1.2,1,1.8,1.5.2.1.3.3.5.4l.6.4l1.2.9l2.5,1.7c3.4,2,6.8,4,10.2,5.3c1.7.8,3.5,1.1,5.2,1.7c1.7.3,3.5.7,5.2.8c3.5.2,6.9.1,10.3-.9c3.4-.9,6.8-2.4,10-4.4c3.3-2,6.5-4.4,9.4-7.3.7-.7,1.5-1.4,2.2-2.1l2.1-2.3c1.5-1.5,2.8-3.2,4.1-4.8c5.3-6.7,10.1-14,15-21.5l7.5-11.4c2.7-3.6,5.2-7.4,8.1-11.3Z" fill="#39001b"/></g><path d="M1907.8,1651.7c22.1,41.7,59,119.1,84.2,213.6c0,0-22,61-19,93c0,0,7.8,16.1,27,18.7c10.8,1.5,25.2-1.3,43.9-13.7" fill="none" stroke="#39001b" stroke-width="20" stroke-miterlimit="10"/><g><path d="M2032.7,1920.9c1.6,1,3.1,2.2,4.4,3.4s2.5,2.5,3.7,3.9c2.3,2.7,4.2,5.6,5.8,8.6c3.3,6.1,5.3,12.6,6.4,19.3c1,6.7,1,13.6-.3,20.4-.6,3.4-1.6,6.7-3,10-.7,1.6-1.5,3.2-2.4,4.8s-1.9,3.1-3.2,4.6c-1-1.7-1.7-3.3-2.4-5-.7-1.6-1.3-3.2-1.9-4.8-1.1-3.1-2.1-6.2-2.9-9.2-1.7-6-2.9-11.9-3.7-17.8-.9-5.9-1.5-11.9-1.7-18.1-.1-3.1-.1-6.3,0-9.6.1-1.7.2-3.4.4-5.1.2-1.8.4-3.5.8-5.4Z" fill="#39001b"/></g><path d="M1908.5,1940.2c1.6,23.7,4.1,66.8,4.8,120c1,73.9-1.5,167.4-14.3,255.1c0,0-8.5,5.1-24,12.1-49,22.3-167.6,64.2-306.9,26.4-12.9-3.5-25.9-7.6-39.1-12.6c0,0,3.7-38.3-.5-85.3" fill="none" stroke="#39001b" stroke-width="20" stroke-miterlimit="10"/><path d="M1799.3,1984.3c13.4,27.8,48.8,84,114,75.9" fill="none" stroke="#39001b" stroke-width="20" stroke-miterlimit="10"/><g><path d="M1793,2026.4c3.1,3.9,6.3,7.6,9.7,11.2c3.3,3.6,6.7,7.1,10.3,10.4c7,6.6,14.6,12.6,22.5,17.9c2,1.3,4,2.6,6.1,3.8c2,1.3,4.2,2.3,6.3,3.5c4.3,2.2,8.6,4.2,13.1,6c8.9,3.6,18.3,6.1,28.1,8.3-10,1.2-20.2.3-30.1-2.3l-3.7-1c-1.2-.3-2.4-.8-3.6-1.2-2.4-.8-4.8-1.9-7.1-2.8-2.3-1.1-4.6-2.2-6.8-3.5-2.3-1.2-4.4-2.6-6.6-3.9-8.5-5.6-16.2-12.5-22.7-20.3-3.2-3.9-6.2-8-8.8-12.3-1.3-2.2-2.5-4.4-3.6-6.6-1.3-2.6-2.3-4.9-3.1-7.2Z" fill="#39001b"/></g><path d="M1875,2327.5c-.1,23.8-.5,63.2-2.3,100.5-.6,11.9-1.3,23.7-2.2,34.6" fill="none" stroke="#39001b" stroke-width="20" stroke-miterlimit="10"/><path d="M1568.1,2353.9c2.2,17.7,5.5,50.6,5.6,93.8c0,14.4-.3,30.1-1.1,46.6" fill="none" stroke="#39001b" stroke-width="20" stroke-miterlimit="10"/><g><path d="M1554,2477.4c3.9,2.2,7.6,4.3,11.3,6.2s7.3,3.8,11,5.6c7.3,3.6,14.5,6.9,21.8,10.1c1.8.9,3.7,1.5,5.5,2.3c1.9.7,3.7,1.5,5.6,2.1l5.6,1.9l5.7,1.7l2.9.9l2.9.7l5.8,1.4c1.9.4,3.9.8,5.9,1.2l2.9.6l1.5.3l1.5.2c15.8,2.7,31.8,3.9,48,4c4,0,8.1,0,12.1-.1c4.1-.2,8.1-.3,12.2-.4l12.2-.8c2-.2,4.1-.2,6.1-.4s4.1-.3,6.1-.5l2.9,19.8c-4.2.8-8.5,1.7-12.8,2.2l-6.4.9c-2.1.3-4.3.6-6.4.8-4.3.4-8.7.7-13,1-1.1.1-2.2.1-3.3.1l-3.3.1-6.5.1c-17.4,0-35-1.7-52.2-5.6-1.1-.2-2.1-.5-3.2-.8l-3.2-.8c-2.1-.6-4.3-1.1-6.4-1.7l-6.3-2-3.1-1-3.1-1.2-6.2-2.4-6.1-2.7c-2-.9-4-1.9-6-2.9s-4-2-5.9-3.1-3.9-2.2-5.7-3.4c-1.9-1.2-3.7-2.5-5.5-3.8-1.7-1.4-3.5-2.7-5.2-4.2s-3.3-3-4.9-4.5c-3.1-3.1-6.1-6.5-8.6-10.2-1.3-1.8-2.5-3.7-3.5-5.7-1.1-1.8-2-3.9-2.7-6Z" fill="#39001b"/></g><path d="M1573.7,2447.7c-32.8,4.4-64.9,34.3-32.6,93.6.9,1.7,1.9,3.4,2.9,5.1c0,0,56.2,52.6,160.2,34.4c18.2-3.2,37.9-8.6,59.1-16.8" fill="none" stroke="#39001b" stroke-width="20" stroke-miterlimit="10"/><g><path d="M1901,2447.4c-2.7,4.1-6,7.5-9.6,10.7-3.6,3.1-7.4,5.9-11.4,8.4-2,1.2-4.1,2.4-6.2,3.4s-4.3,2-6.5,2.9c-2.2.8-4.4,1.6-6.7,2.4-2.3.7-4.5,1.4-6.8,2-9.1,2.5-18.4,4.2-27.7,5.4s-18.5,1.8-27.5,2.3c-9,.6-17.8,1-25.7,2.4-4,.7-7.8,1.6-11.1,2.8-3.4,1.3-6.4,2.9-8.9,4.9-2.6,2-4.8,4.5-6.8,7.3-.5.7-1,1.5-1.4,2.2l-1.3,2.4-.3.6-.2.3c-.1.2-.2.5-.3.7s-.1.5-.2.7c0,.3-.1.5-.1.7-.2,1-.2,2.2,0,3.5s.5,2.8,1,4.3c1,3.1,2.7,6.4,4.7,9.7c4,6.6,9.4,13.1,15.1,19.4c2.9,3.1,5.9,6.2,9,9.2l4.7,4.5c1.6,1.5,3.1,3,4.8,4.4c13,11.7,26.8,22.7,40.9,33.4s28.6,21,43.3,31.1c7.3,5.1,14.7,10.1,22.2,14.9c7.4,5,14.9,9.8,22.4,14.7l-10.3,17.1c-31.6-17.9-62-37.6-91.4-59.2l-5.5-4.1-5.4-4.2c-3.6-2.7-7.2-5.6-10.8-8.5-7.1-5.7-14.2-11.7-21-17.9-1.7-1.5-3.4-3.1-5.1-4.8l-5-4.8c-3.3-3.3-6.6-6.6-9.8-10.2-6.3-7.1-12.4-14.5-17.7-23.3-2.6-4.4-4.9-9.2-6.6-14.7-.8-2.7-1.5-5.7-1.8-8.8s-.2-6.5.4-9.9c.1-.8.4-1.7.6-2.5.3-.8.5-1.7.8-2.5s.6-1.6,1-2.4l.6-1.2.5-.9l2-3.5c.7-1.1,1.5-2.3,2.3-3.4c3.2-4.4,7.2-8.6,11.8-12s9.7-5.9,14.8-7.6s10.2-2.7,15.1-3.4c9.8-1.3,19-1.4,28-1.7c9-.2,17.7-.5,26.3-1.2s17.1-1.9,25.4-3.8c2.1-.5,4.1-1,6.2-1.5c2.1-.6,4.1-1.1,6.2-1.6c2-.6,4.1-1.1,6.2-1.7l6.3-1.6c4.2-1.1,8.5-2.2,12.9-3.2c4.2-.9,8.7-2,13.6-2.6Z" fill="#39001b"/></g><path d="M1541.1,2541.3c-3.9,21.9-8.2,68.9,12.9,119.1c0,0-.4,1-1.1,2.8-3.5,9.6-13.2,41.9,1.1,72.2c0,0,74,20,122,50s117,89,249,85s205-75,205-75s15-34.8-5-53.3c-.6-.6-1.3-1.2-2-1.7c0,0,32.6-106.5-98.6-125-2.7-.4-5.5-.7-8.4-1c0,0-54-30-75-51-27.3-27.3-1-71-6-102-4.5-28-22.8-34-62.3-33.4" fill="none" stroke="#39001b" stroke-width="20" stroke-miterlimit="10"/><path d="M1552.9,2663.2c83.1,17.6,143.4,63.2,217.1,114.2c24.4,16.9,57.7,28.9,95.3,34.5c81.7,12.1,183.7-6,259.7-69.8" fill="none" stroke="#39001b" stroke-width="20" stroke-miterlimit="10"/><path d="M1865.3,2811.9c-5.7-31.1-5.3-69,10.7-103.5c6.7-14.5,16.1-28.3,29-40.8c25-24.3,63.1-43.6,119.4-52.2" fill="none" stroke="#39001b" stroke-width="20" stroke-miterlimit="10"/><path d="M1704.2,2580.8c32.5,38.2,116.5,79.6,171.8,127.6" fill="none" stroke="#39001b" stroke-width="20" stroke-miterlimit="10"/><path d="M1501.4,1079.4c-.9,0-1.8,0-2.7,0-147.8.2-273.7,4.2-337.6,42-66,39-168,178-234,305c0,0,3.9,4.8,11.7,12.6c23.2,23.2,81,72.8,171,97.8" fill="none" stroke="#39001b" stroke-width="20" stroke-miterlimit="10"/><g><path d="M1143,1379.4c-3.1,23.2-6.7,46.1-10.4,69l-5.5,34.3-2.7,17.2-2.9,17.1c-4.1,22.8-7.5,45.7-10.8,68.6-3.2,22.9-6.2,45.9-8.9,68.8-1.3,11.5-2.6,23-3.7,34.5-1.2,11.5-2.3,23-3.3,34.5s-1.9,23-2.7,34.6c-.8,11.5-1.6,23-2.3,34.6-.7,11.5-1.2,23.1-1.6,34.6-.2,5.8-.5,11.5-.6,17.3s-.3,11.5-.4,17.3c-.5,23.1-.6,46.1-.2,69.2v0l-4.1-7.8l1.2.8l1.3.9c.9.6,1.9,1.2,2.8,1.8c1.9,1.2,3.8,2.3,5.8,3.4c3.9,2.3,7.9,4.4,12,6.5c8.1,4.2,16.4,8.1,24.9,11.8c16.9,7.4,34.2,13.9,51.8,19.7c35.2,11.6,71.4,20.4,107.9,27.2c18.3,3.4,36.7,6.2,55.1,8.7c18.5,2.4,37,4.3,55.6,5.9c18.6,1.5,37.2,2.6,55.8,3.3c9.3.3,18.7.4,28,.7l14,.3l14,.1v20l-14.2-.1-14.2-.3c-9.5-.2-18.9-.4-28.4-.7-18.9-.8-37.8-1.9-56.7-3.4-18.9-1.6-37.7-3.5-56.5-6s-37.5-5.4-56.2-8.9c-37.3-6.9-74.3-16-110.5-27.9-18.1-6-36-12.7-53.5-20.4-8.8-3.8-17.5-7.9-26-12.4-4.3-2.2-8.5-4.5-12.8-7-2.1-1.2-4.2-2.5-6.3-3.8-1.1-.7-2.1-1.3-3.2-2l-1.6-1.1-.8-.6-.9-.6-3.9-2.7-.2-5v0c-1.1-23.4-1.5-46.8-1.3-70.2.1-5.8.2-11.7.3-17.5s.3-11.7.5-17.5c.4-11.7,1-23.4,1.7-35c.7-11.7,1.4-23.3,2.4-35c.9-11.6,2-23.3,3.2-34.9s2.4-23.2,3.8-34.8s2.9-23.2,4.5-34.7c3.2-23.1,6.6-46.2,10.6-69.2s8.2-45.9,13-68.7l3.6-17.1l3.8-17.1c.6-2.8,1.3-5.7,2-8.5s1.4-5.7,2.1-8.5l2.2-8.5l2.3-8.4c5.9-22.3,12.6-44.6,21.1-66.4Z" fill="#39001b"/></g><g><path d="M1089.5,1336c3.1,49.1,17.2,96.6,40.2,138.4l-18.2,8.4c-18.1-47.3-25.6-97.8-22-146.8Z" fill="#39001b"/></g><path d="M938.7,1438.9c-74.9,143-121,260.4-149.7,392.4c0,0-43.8,200.6,60.4,194.4" fill="none" stroke="#39001b" stroke-width="20" stroke-miterlimit="10"/><g><path d="M819,1969.4c3.4,4.6,6.4,9.1,9.5,13.6c3,4.5,6.1,8.8,9.1,13.1s6.1,8.4,9.2,12.4l2.4,2.9l2.5,2.8l1.2,1.4l1.3,1.3l2.6,2.6c7,6.7,14.7,12,22.8,14.6c4,1.3,8.2,2,12.4,2c4.2.1,8.6-.5,13.1-1.4l5.8,19.1c-5.9,2.1-12.3,3.5-18.8,3.6s-13.2-.9-19.4-3.1c-1.6-.5-3.1-1.2-4.5-1.8-1.5-.6-2.9-1.4-4.3-2.2-2.8-1.5-5.5-3.3-8-5.2-1.3-.9-2.4-2-3.6-2.9-1.2-1-2.3-2.1-3.4-3.1-1.1-1.1-2.1-2.2-3.2-3.3-1-1.1-2-2.3-3-3.4-3.7-4.7-7.1-9.4-10-14.5-2.9-5-5.4-10.1-7.4-15.5-2-5.3-3.6-10.7-4.7-16.3-.5-2.8-1-5.6-1.2-8.4-.4-2.6-.5-5.5-.4-8.3Z" fill="#39001b"/></g><g><path d="M873,1982.4c3,3.9,5.6,7.7,8.2,11.5s5,7.6,7.5,11.3c.6.9,1.2,1.9,1.8,2.8l1.8,2.8c1.2,1.8,2.5,3.6,3.7,5.5l3.7,5.3l1.9,2.6l1,1.3l1,1.2c1.4,1.6,2.7,3.3,4.1,4.8l2.1,2.3c.7.7,1.5,1.4,2.2,2.1c2.9,2.9,6.1,5.3,9.3,7.2c3.3,1.9,6.6,3.5,10,4.4s6.8,1.1,10.2.9c1.7,0,3.4-.5,5.2-.8c1.7-.6,3.5-.9,5.2-1.7c3.5-1.2,6.9-3.2,10.2-5.2l2.5-1.7l1.2-.9.6-.4c.2-.1.3-.3.5-.4.6-.5,1.2-1,1.8-1.5.6-.6,1.2-1.2,1.7-1.8c2.3-2.6,4.4-5.8,6.3-9.2c1.9-3.5,3.5-7.2,5-11c.4-1,.7-2,1-2.9.3-1,.7-2,1-3l.9-3c.3-1,.5-2,.8-3c2.2-8.1,3.6-16.6,4.3-25l20,.7c0,9.9-1.2,19.8-3.4,29.4-1.1,4.8-2.5,9.6-4.2,14.3-.9,2.4-1.8,4.7-2.9,7.1-1,2.3-2.2,4.7-3.4,7-2.6,4.6-5.6,9.1-9.4,13.3-1,1-2.1,2.1-3.1,3.1-1.1,1-2.3,1.9-3.5,2.9-.3.2-.6.5-.9.7l-.8.5-1.6,1.1-3.2,2.1c-4.6,2.6-9.2,5.1-14.5,6.8-2.5,1-5.3,1.5-8,2.2-2.8.4-5.6.9-8.5.9-5.7.2-11.5-.6-16.9-2.4s-10.3-4.4-14.7-7.5-8.3-6.6-11.7-10.4c-.9-.9-1.7-1.9-2.6-2.8l-2.3-3c-1.6-1.9-2.9-4-4.4-6l-1-1.5-1-1.6-1.9-3.1c-1.3-2.1-2.4-4.2-3.5-6.4-2.1-4.4-4-8.8-5.4-13.3-1.5-4.5-2.6-9.2-3.4-13.9-.4-5.1-.8-9.8-.5-14.7Z" fill="#39001b"/></g><path d="M1092.2,1651.7c-22.1,41.7-59,119.1-84.2,213.6c0,0,22,61,19,93c0,0-7.8,16.1-27,18.7-10.8,1.5-25.2-1.3-43.9-13.7" fill="none" stroke="#39001b" stroke-width="20" stroke-miterlimit="10"/><g><path d="M967.3,1920.9c.4,1.9.6,3.7.8,5.4.2,1.8.3,3.4.4,5.1.1,3.3.2,6.5,0,9.6-.2,6.2-.8,12.2-1.7,18.1s-2.1,11.8-3.7,17.8c-.8,3-1.8,6.1-2.9,9.2-.6,1.6-1.2,3.2-1.9,4.8s-1.4,3.3-2.4,5c-1.3-1.5-2.3-3-3.2-4.6s-1.7-3.2-2.4-4.8c-1.4-3.3-2.3-6.6-3-10-1.3-6.8-1.3-13.6-.3-20.4c1-6.7,3.1-13.3,6.4-19.3c1.6-3,3.6-5.9,5.8-8.6c1.1-1.3,2.4-2.6,3.7-3.9c1.3-1.2,2.7-2.4,4.4-3.4Z" fill="#39001b"/></g><path d="M1091.5,1940.2c-1.6,23.7-4.1,66.8-4.8,120-1,73.9,1.5,167.4,14.3,255.1c0,0,8.5,5.1,24,12.1c49,22.3,167.6,64.2,306.9,26.4c12.9-3.5,25.9-7.6,39.1-12.6c0,0-5.1-53,3.6-110.7" fill="none" stroke="#39001b" stroke-width="20" stroke-miterlimit="10"/><path d="M1200.7,1984.3c-13.4,27.8-48.8,84-114,75.9" fill="none" stroke="#39001b" stroke-width="20" stroke-miterlimit="10"/><g><path d="M1207,2026.4c-.8,2.4-1.8,4.7-2.9,6.9-1.1,2.3-2.3,4.5-3.6,6.6-2.6,4.3-5.6,8.4-8.8,12.3-6.5,7.8-14.2,14.7-22.7,20.3-2.2,1.4-4.3,2.7-6.6,3.9-2.2,1.3-4.5,2.3-6.8,3.5-2.4,1-4.7,2.1-7.1,2.8-1.2.4-2.4.9-3.6,1.2l-3.7,1c-9.9,2.6-20.1,3.4-30.1,2.3c9.8-2.2,19.2-4.7,28.1-8.3c4.5-1.8,8.8-3.8,13.1-6c2.1-1.2,4.2-2.2,6.3-3.5c2.1-1.2,4.1-2.5,6.1-3.8c8-5.3,15.5-11.3,22.5-17.9c3.5-3.3,6.9-6.8,10.3-10.4c3.2-3.3,6.4-7,9.5-10.9Z" fill="#39001b"/></g><path d="M1125,2327.5c.1,23.8.5,63.2,2.4,100.5.6,11.9,1.3,23.7,2.2,34.6" fill="none" stroke="#39001b" stroke-width="20" stroke-miterlimit="10"/><path d="M1431.9,2353.9c-2.2,17.7-5.5,50.6-5.6,93.8c0,14.4.3,30.1,1.1,46.6" fill="none" stroke="#39001b" stroke-width="20" stroke-miterlimit="10"/><g><path d="M1446,2477.4c-1.2,4.5-3.4,8.4-5.9,12.2-2.5,3.7-5.5,7.1-8.6,10.2-1.6,1.5-3.3,3-5,4.5-1.7,1.4-3.5,2.7-5.3,4-1.8,1.2-3.7,2.4-5.6,3.6s-3.8,2.2-5.8,3.3c-1.9,1.1-3.9,2.1-5.9,3.1s-3.9,2-6,2.9l-6.1,2.7-6.2,2.4-3.1,1.2-3.1,1-6.3,2c-2.1.6-4.2,1.1-6.4,1.7l-3.2.8-1.6.4-1.6.3c-17.2,3.8-34.7,5.6-52.1,5.6l-6.5-.1c-2.2-.1-4.4,0-6.5-.2-4.3-.3-8.7-.6-13-.9-8.6-1-17.2-2-25.7-3.7l2.9-19.8c2,.1,4.1.3,6.1.5s4.1.3,6.1.4c4.1.3,8.1.6,12.2.8c4.1.1,8.1.3,12.2.5c4.1.1,8.1.1,12.1.1c16.2-.1,32.2-1.3,48-4l1.5-.2l1.5-.3l2.9-.6c2-.4,3.9-.8,5.9-1.2l5.8-1.5l2.9-.7l2.9-.9l5.7-1.7l5.6-2c1.9-.6,3.7-1.4,5.6-2.1c1.8-.7,3.7-1.4,5.5-2.3c1.8-.8,3.6-1.6,5.4-2.5s3.5-1.8,5.4-2.6c1.8-.9,3.5-1.8,5.4-2.7c1.8-.9,3.6-1.8,5.4-2.7l11-5.6l11.5-5.9Z" fill="#39001b"/></g><path d="M1426.3,2447.7c32.8,4.4,64.9,34.3,32.6,93.6-.9,1.7-1.9,3.4-2.9,5.1c0,0-56.2,52.6-160.2,34.4-18.2-3.2-37.9-8.6-59.1-16.8" fill="none" stroke="#39001b" stroke-width="20" stroke-miterlimit="10"/><g><path d="M1099,2447.4c2.4.4,4.7,1,6.9,1.5s4.5,1.1,6.6,1.7c4.4,1.1,8.6,2.3,12.8,3.4c8.4,2.2,16.7,4.5,25,6.4c8.4,1.9,16.9,3.1,25.5,3.8s17.4,1,26.4,1.2c9,.3,18.2.4,28,1.7c4.9.7,9.9,1.7,14.9,3.4s10.1,4.2,14.7,7.5s8.5,7.4,11.7,11.8c.8,1.1,1.6,2.2,2.3,3.3l2,3.4.5.9.6,1.1c.4.8.7,1.6,1,2.4s.6,1.6.8,2.5c.2.8.4,1.7.6,2.5.6,3.3.7,6.6.4,9.7s-.9,6-1.8,8.7c-1.7,5.4-4,10.2-6.6,14.6-5.2,8.8-11.3,16.2-17.6,23.3-3.2,3.5-6.4,6.9-9.7,10.2l-5,4.8c-1.7,1.6-3.3,3.2-5.1,4.8-6.8,6.2-13.8,12.2-21,17.9-3.6,2.9-7.1,5.7-10.8,8.5l-5.4,4.2-5.5,4.1c-29.3,21.7-59.7,41.4-91.2,59.5l-10.3-17.1c7.5-4.8,15-9.6,22.4-14.6c7.5-4.9,14.9-9.8,22.2-14.9c7.4-5,14.7-10.1,21.9-15.2c3.6-2.6,7.2-5.2,10.8-7.8l5.4-3.9l5.3-4c14.2-10.6,28-21.7,41-33.3c1.7-1.4,3.2-2.9,4.8-4.4l4.7-4.5c3.1-3,6.1-6.1,9-9.2c5.8-6.2,11.2-12.8,15.2-19.4c2-3.3,3.7-6.7,4.8-9.8.5-1.6.9-3.1,1-4.5.2-1.4.1-2.6,0-3.7c0-.3-.1-.5-.2-.8-.1-.2-.1-.5-.2-.8-.1-.2-.2-.5-.3-.7l-.2-.4-.3-.6-1.3-2.4-1.5-2.2c-2-2.9-4.3-5.4-6.9-7.5s-5.7-3.7-9.1-5-7.2-2.2-11.3-2.9c-8-1.4-16.8-1.9-25.8-2.4s-18.2-1.2-27.4-2.4-18.5-2.9-27.6-5.4c-9.1-2.4-18-5.8-26.1-10.7-4.1-2.4-7.9-5.1-11.5-8.2-3.3-3-6.6-6.3-9.5-10.1Z" fill="#39001b"/></g><path d="M1458.9,2541.3c3.9,21.9,8.2,68.9-12.9,119.1c0,0,.4,1,1.1,2.8c3.5,9.6,13.2,41.9-1.1,72.2c0,0-74,20-122,50s-117,89-249,85-205-75-205-75-15-34.8,5-53.3c.6-.6,1.3-1.2,2-1.7c0,0-32.6-106.5,98.6-125c2.7-.4,5.5-.7,8.4-1c0,0,54-30,75-51c27.3-27.3,1-71,6-102c4.5-28,22.8-34,62.3-33.4" fill="none" stroke="#39001b" stroke-width="20" stroke-miterlimit="10"/><path d="M1447.1,2663.2c-83.1,17.6-143.4,63.2-217.1,114.2-24.4,16.9-57.7,28.9-95.3,34.5-81.7,12.1-183.7-6-259.7-69.8-.7-.6-1.3-1.1-2-1.7" fill="none" stroke="#39001b" stroke-width="20" stroke-miterlimit="10"/><path d="M1134.7,2811.9c5.7-31.1,5.3-69-10.7-103.5-6.7-14.5-16.1-28.3-29-40.8-25-24.3-63.1-43.6-119.4-52.2" fill="none" stroke="#39001b" stroke-width="20" stroke-miterlimit="10"/><path d="M1295.8,2580.8c-32.5,38.2-116.5,79.6-171.8,127.6" fill="none" stroke="#39001b" stroke-width="20" stroke-miterlimit="10"/><g><path d="M1384.5,2271.1c4.5-15.4,12.3-30.1,22.7-43.1c5.2-6.5,11.1-12.5,17.7-18c3.3-2.7,6.7-5.3,10.2-7.7l2.7-1.8c.9-.6,1.8-1.1,2.8-1.7l5.6-3.3l7.7,18.5-5.2,1.7c-.9.3-1.8.6-2.6.9l-2.6,1c-3.5,1.4-6.8,3-10.2,4.7-6.7,3.5-13,7.7-19,12.6-11.9,9.9-22.2,22.1-29.8,36.2Z" fill="#39001b"/></g><g><path d="M1312.3,2232.5c10.8-15.7,24.9-29.4,41.3-40.2s35.1-18.7,55.1-22.7l2.3,19.9c-35.4.7-71.9,15.8-98.7,43Z" fill="#39001b"/></g><path d="M1458.9,2023.4c1.4,18-4.5,35.8-10.9,53.6-7.1,19.6-14.9,39.4-14.9,59.8c0,15.4,4.5,30.3,9,45c2.4,7.8,4.8,15.7,8.1,23.2c2.4,5.7,5.4,11,9,15.9" fill="none" stroke="#39001b" stroke-width="20" stroke-miterlimit="10"/><path d="M1904.5,2290.9c75,45,199,18,204,5s-14-18-14-18c97-31,134-125,122-130s-35,7-35,7s35.5-49.5,17.7-150.2" fill="none" stroke="#39001b" stroke-width="20" stroke-miterlimit="10"/><path d="M1919.8,1822.3c0,0,34.4-14,60.3,1" fill="none" stroke="#39001b" stroke-width="20" stroke-miterlimit="10"/><path d="M1913.3,2109c32.6,31.5,84.5,41.2,126.2,23.5-8.9-4.5-19.1-12.7-24.6-21c37.8-1.4,71.4-27.9,82.9-63.9" fill="none" stroke="#39001b" stroke-width="20" stroke-miterlimit="10"/></g><g><g><g><path d="M1990.5,2580.7c.6,8.3-5.6,15.5-13.8,16.1-45.2,3.4-88.9,28.9-114.1,66.7-2.9,4.3-7.6,6.7-12.5,6.7-2.8,0-5.7-.8-8.3-2.5-6.9-4.6-8.8-13.9-4.2-20.8c14.9-22.4,35.4-41.6,59.3-55.6s50.7-22.4,77.5-24.4c8.3-.6,15.5,5.6,16.1,13.8Z" fill="#fff"/><path d="M1947.4,2534c8.2,1,14.1,8.4,13.2,16.6-1,8.2-8.4,14.1-16.6,13.2-49.8-5.8-102,18.2-130,59.8-2.9,4.3-7.6,6.6-12.5,6.6-2.9,0-5.8-.8-8.3-2.6-6.9-4.6-8.7-13.9-4.1-20.8c34-50.6,97.6-79.9,158.3-72.8Z" fill="#fff"/></g><g><path d="M1793.5,2620.6c-.8,5.2,6,8.7,11,7c4.9-1.7,8.1-6.4,11.2-10.6c26.9-36.9,71.8-57.7,117.3-54.8c7.3.5,14.4-5.5,15.1-12.8-30.5-4-63.3,2-90.4,16.4-4.4,2.3-8.8,4.9-13.6,6-4.9,1.1-10.4.4-14-3.1-9.4,7-16.4,12.4-24.5,20.9-6.2,6.6-12.2,13.9-14.3,22.7-1.2,5.2-2.8,6,2.2,8.3Z" opacity="0.2" fill="#39001b"/><path d="M1975.2,2583.4c-.4,4.9-2.8,9.5-6.5,12.7-37.8,5.3-74.1,25.6-97.7,55.6-4.4,5.6-8.7,11.8-15,15.1s-15.6,2.5-19-3.7c-3.4-6.1.3-13.7,4.3-19.4c10.9-15.6,25.2-28.8,41.6-38.5c2.5,3.7,6.1,5.2,10.4,4.4c4.4-.9,8.2-3.3,12.1-5.6c21.4-12.5,45.1-19.6,69.8-20.6Z" opacity="0.2" fill="#39001b"/></g><g><path d="M1801.4,2630.3c-2.9,0-5.8-.8-8.3-2.6-6.9-4.6-8.7-13.9-4.1-20.8c34.1-50.7,97.7-80,158.4-72.9c8.2,1,14.1,8.4,13.2,16.6-1,8.2-8.4,14.1-16.6,13.2-49.8-5.8-102,18.2-130,59.8-3,4.4-7.7,6.7-12.6,6.7Z" fill="none" stroke="#39001b" stroke-width="14" stroke-miterlimit="10"/><path d="M1850.1,2670.2c-2.8,0-5.7-.8-8.3-2.5-6.9-4.6-8.8-13.9-4.2-20.8c14.9-22.4,35.4-41.6,59.3-55.6s50.7-22.4,77.5-24.4c8.3-.6,15.5,5.6,16.1,13.8.6,8.3-5.6,15.5-13.8,16.1-45.2,3.4-88.9,28.9-114.1,66.7-2.9,4.4-7.6,6.7-12.5,6.7Z" fill="none" stroke="#39001b" stroke-width="14" stroke-miterlimit="10"/></g></g><g><g><path d="M1009.5,2580.7c-.6,8.3,5.6,15.5,13.8,16.1c45.2,3.4,88.9,28.9,114.1,66.7c2.9,4.3,7.6,6.7,12.5,6.7c2.8,0,5.7-.8,8.3-2.5c6.9-4.6,8.8-13.9,4.2-20.8-14.9-22.4-35.4-41.6-59.3-55.6s-50.7-22.4-77.5-24.4c-8.3-.6-15.5,5.6-16.1,13.8Z" fill="#fff"/><path d="M1052.6,2534c-8.2,1-14.1,8.4-13.2,16.6c1,8.2,8.4,14.1,16.6,13.2c49.8-5.8,102,18.2,130,59.8c2.9,4.3,7.6,6.6,12.5,6.6c2.9,0,5.8-.8,8.3-2.6c6.9-4.6,8.7-13.9,4.1-20.8-34-50.6-97.6-79.9-158.3-72.8Z" fill="#fff"/></g><g><path d="M1206.5,2620.6c.8,5.2-6,8.7-11,7-4.9-1.7-8.1-6.4-11.2-10.6-26.9-36.9-71.8-57.7-117.3-54.8-7.3.5-14.4-5.5-15.1-12.8c30.5-4,63.3,2,90.4,16.4c4.4,2.3,8.8,4.9,13.6,6c4.9,1.1,10.4.4,14-3.1c9.4,7,16.4,12.4,24.5,20.9c6.2,6.6,12.2,13.9,14.3,22.7c1.2,5.2,2.8,6-2.2,8.3Z" opacity="0.2" fill="#39001b"/><path d="M1024.8,2583.4c.4,4.9,2.8,9.5,6.5,12.7c37.8,5.3,74.1,25.6,97.7,55.6c4.4,5.6,8.7,11.8,15,15.1s15.6,2.5,19-3.7c3.4-6.1-.3-13.7-4.3-19.4-10.9-15.6-25.2-28.8-41.6-38.5-2.5,3.7-6.1,5.2-10.4,4.4-4.4-.9-8.2-3.3-12.1-5.6-21.4-12.5-45.1-19.6-69.8-20.6Z" opacity="0.2" fill="#39001b"/></g><g><path d="M1198.6,2630.3c2.9,0,5.8-.8,8.3-2.6c6.9-4.6,8.7-13.9,4.1-20.8-34.1-50.7-97.7-80-158.4-72.9-8.2,1-14.1,8.4-13.2,16.6c1,8.2,8.4,14.1,16.6,13.2c49.8-5.8,102,18.2,130,59.8c3,4.4,7.7,6.7,12.6,6.7Z" fill="none" stroke="#39001b" stroke-width="14" stroke-miterlimit="10"/><path d="M1149.9,2670.2c2.8,0,5.7-.8,8.3-2.5c6.9-4.6,8.8-13.9,4.2-20.8-14.9-22.4-35.4-41.6-59.3-55.6s-50.7-22.4-77.5-24.4c-8.3-.6-15.5,5.6-16.1,13.8-.6,8.3,5.6,15.5,13.8,16.1c45.2,3.4,88.9,28.9,114.1,66.7c2.9,4.4,7.6,6.7,12.5,6.7Z" fill="none" stroke="#39001b" stroke-width="14" stroke-miterlimit="10"/></g></g></g></g><g id="ebxntNiqWjI155_to" transform="translate(1500,1238.400513)"><g transform="translate(-1500,-1238.400513)"><path d="M1783.2,1185c-6,3.4-12.4,6-19.2,7.2-14.3,38.9-42.4,72-76.8,95.2s-74.7,36.7-115.7,42.2c9.5,19.4,10,39.8,2.9,60.2s-22.6,37.7-42.1,47c-10.2,4.9-21.2,7.6-32.3,9.4-11.1-1.8-22.2-4.5-32.3-9.4-19.5-9.3-35-26.6-42.1-47s-6.6-40.8,2.9-60.2c-41.1-5.5-81.4-19-115.7-42.2s-62.4-56.3-76.8-95.2c-6.8-1.2-13.2-3.7-19.2-7.2c5.2,39.9,26,76.8,54.4,105.2s64.1,52.5,101.7,66.6c-1.5,33.7,11.7,67.9,35.6,91.8c23.8,23.9,57.8,37.1,91.5,35.7c33.7,1.3,67.7-11.8,91.5-35.7s37.1-58.1,35.6-91.8c37.6-14.2,73.3-38.2,101.7-66.6s49.1-65.3,54.4-105.2Z" opacity="0.2" fill="#39001b"/><g><path d="M1500,992.4c147.2,0,266.5,77,266.5,172s-119.3,172-266.5,172-266.5-77-266.5-172s119.3-172,266.5-172Zm212.5,147.5c0-22.1-20.5-43.4-57.8-60.1-40.9-18.3-95.9-28.4-154.7-28.4s-113.8,10.1-154.7,28.4c-37.3,16.7-57.8,38-57.8,60.1s20.5,43.4,57.8,60.1c40.9,18.3,95.9,28.4,154.7,28.4s113.8-10.1,154.7-28.4c37.3-16.7,57.8-38.1,57.8-60.1Z" fill="#d45079"/><path d="M1500,1312.4c-67.4,0-130.5-16.8-177.6-47.2-44.4-28.7-68.9-65.9-68.9-104.8s24.5-76.1,68.9-104.8c47.1-30.4,110.2-47.2,177.6-47.2s130.5,16.8,177.6,47.2c44.4,28.7,68.9,65.9,68.9,104.8s-24.5,76.1-68.9,104.8c-47.1,30.4-110.2,47.2-177.6,47.2Zm0-285c-61.6,0-119.4,10.7-162.9,30.2-44.9,20.1-69.6,47.9-69.6,78.3s24.7,58.2,69.6,78.3c43.4,19.4,101.3,30.2,162.9,30.2s119.4-10.7,162.9-30.2c44.9-20.1,69.6-47.9,69.6-78.3s-24.7-58.2-69.6-78.3c-43.5-19.5-101.3-30.2-162.9-30.2Z" opacity="0.2" fill="#39001b"/><g><ellipse rx="266.5" ry="172" transform="translate(1500 1164.4)" fill="none" stroke="#39001b" stroke-width="20" stroke-linecap="round" stroke-miterlimit="10"/><path d="M1500,1228.4c-58.8,0-113.8-10.1-154.7-28.4-37.3-16.7-57.8-38-57.8-60.1s20.5-43.4,57.8-60.1c40.9-18.3,95.9-28.4,154.7-28.4s113.8,10.1,154.7,28.4c37.3,16.7,57.8,38,57.8,60.1s-20.5,43.4-57.8,60.1c-40.9,18.3-95.9,28.4-154.7,28.4Z" fill="none" stroke="#39001b" stroke-width="20" stroke-linecap="round" stroke-miterlimit="10"/></g></g><g><g><path d="M1500,1443.4c-43.1,0-78-34.9-78-78s34.9-78,78-78s78,34.9,78,78c0,43-34.9,78-78,78Z" fill="#fff89a"/><circle r="23.5" transform="translate(1500 1388.9)" fill="#39001b"/><path d="M1558,1365.4c0,32-26,58-58,58s-58-26-58-58c0-6.1.9-12,2.7-17.5c7.4,23.4,29.4,40.5,55.3,40.5s47.9-17.1,55.3-40.5c1.8,5.5,2.7,11.4,2.7,17.5Z" opacity="0.2" fill="#39001b"/><ellipse rx="28" ry="13" transform="translate(1500 1323.4)" opacity="0.5" fill="#fff"/></g><g><circle r="78" transform="translate(1500 1365.4)" fill="none" stroke="#39001b" stroke-width="20" stroke-linecap="round" stroke-miterlimit="10"/><line x1="1500" y1="1443.4" x2="1500" y2="1412.4" fill="none" stroke="#39001b" stroke-width="20" stroke-linecap="round" stroke-miterlimit="10"/></g></g></g></g><g id="ebxntNiqWjI172_to" transform="translate(1500.5,1139.9)"><g id="ebxntNiqWjI172_tr" transform="rotate(0)"><g transform="translate(-1500.5,-1139.9)"><g id="ebxntNiqWjI173_to" transform="translate(1847.547546,370.19664)"><g transform="translate(-1847.547546,-370.19664)"><path d="M1703.2,297.8c94.7-92.4,211.7-166.1,250.2-150.3c38.4,15.8,51.6,173.4,23.3,449.3" fill="#f5b971"/><path d="M1756.6,315.5c55-67,147-132,171-118s38,109,6,337" fill="#f5e8c7"/><path d="M1934.9,533.5c3.4-39.5,8.1-77.9,13.8-117.1-58.7-49.9-85-134.9-64.7-209.3-45.9,29.6-88.6,63.6-122.5,106.4" opacity="0.2" fill="#39001b"/><path d="M1712.1,289.9c0,0,182.2-165.8,241-144.4c22,8,31.6,71.2,31.6,71.2s-23-37-35.6-47.2c-16-13-119,26-210,137" opacity="0.5" fill="#fff"/><path d="M1703.2,297.8c94.7-92.4,211.7-166.1,250.2-150.3c38.4,15.8,51.6,173.4,23.3,449.3" fill="none" stroke="#39001b" stroke-width="20" stroke-miterlimit="10"/><path d="M1756.6,315.5c55-67,147-132,171-118s38,109,6,337" fill="none" stroke="#39001b" stroke-width="14" stroke-linecap="round" stroke-miterlimit="10"/></g></g><g id="ebxntNiqWjI180_to" transform="translate(1159.652374,350.396652)"><g transform="translate(-1159.652374,-350.396652)"><path d="M1030.5,577c-28.3-275.9-15.1-433.5,23.3-449.3c38.5-15.8,155.5,57.9,250.2,150.3" fill="#f5b971"/><path d="M1250.6,295.7c-55-67-147-132-171-118s-38,109-6,337" fill="#f5e8c7"/><path d="M1072.3,513.7c-3.4-39.5-8.1-77.9-13.8-117.1c58.7-49.9,85-134.9,64.7-209.3c45.9,29.6,88.6,63.6,122.5,106.4" opacity="0.2" fill="#39001b"/><path d="M1295.1,270.1c0,0-182.2-165.8-241-144.4-22,8-31.6,71.2-31.6,71.2s23-37,35.6-47.2c16-13,119,26,210,137" opacity="0.5" fill="#fff"/><path d="M1304,278c-94.7-92.4-211.7-166.1-250.2-150.3-38.4,15.8-51.6,173.4-23.3,449.3" fill="none" stroke="#39001b" stroke-width="20" stroke-miterlimit="10"/><path d="M1250.6,295.7c-55-67-147-132-171-118s-38,109-6,337" fill="none" stroke="#39001b" stroke-width="14" stroke-linecap="round" stroke-miterlimit="10"/></g></g><g><path d="M1301.2,283.7c-41.1,8.3-79.5,29-109.7,67.2-57.2,72.4-105,150.3-163.8,231.8" fill="#f5b971"/><path d="M1972.3,582.6c-58.8-81.5-106.6-159.4-163.8-231.8-30.2-38.2-68.6-58.9-109.7-67.2" fill="#f5b971"/><path d="M1500,751.2c19-6.2,99-34.5,99-68.8c0-27.7-35.3-53.8-99-54.4-63.7.5-99,26.6-99,54.4c0,34.3,80,62.6,99,68.8Zm198.8-467.5c41.1,8.3,79.5,29,109.7,67.2c57.2,72.4,105,150.3,163.8,231.8c26.5,36.7,55.3,74.2,88.2,112.2c140.8,162.8-100.8,549.4-560.5,550.5-459.7-1.1-701.3-387.7-560.5-550.5c32.9-38,61.7-75.5,88.2-112.2c58.8-81.5,106.6-159.4,163.8-231.8c30.2-38.2,68.6-58.9,109.7-67.2c66.7-13.5,140.7,5.5,198.8,34.8c58.1-29.3,132.1-48.3,198.8-34.8Z" fill="#f5b971"/><g><path d="M2082.8,728.4c-19.7-41.4-43.8-66.1-82.6-110.7-22.2-25.6-44.6-39.1-77.7-46.1s-72.1,2-90.6,30.4c-10.3,15.7-13.4,35.7-25.7,49.9-15.9,18.5-43.7,22.5-67.5,17.3s-45.2-17.9-67.3-28.3c-53.2-25.1-112.5-37.2-171.3-35.3-58.8-2-118.1,10.2-171.3,35.3-22.1,10.4-43.4,23.1-67.3,28.3-23.8,5.2-51.6,1.2-67.5-17.3-12.3-14.2-15.4-34.2-25.7-49.9-18.5-28.3-57.5-37.4-90.6-30.4s-55.5,20.6-77.7,46.1c-38.8,44.7-62.9,69.3-82.6,110.7-32.2,67.7-14.6,149.4,20,215.9c52.9,101.8,143.3,181.7,246.7,231.3c92.6,44.4,195.2,65.3,298,68.5v.4c6,.1,12,0,18,0c6,.1,12,.1,18,0v-.4c102.8-3.2,205.4-24.1,298-68.5c103.4-49.6,193.8-129.6,246.7-231.3c34.6-66.5,52.2-148.2,20-215.9Z" fill="#f5e8c7"/><g><path d="M1929.2,520.4c0,0-60-89-98-145s-79-74-79-74" fill="#f5e8c7"/><path d="M1070.8,520.4c0,0,60-89,98-145s79-74,79-74" fill="#f5e8c7"/></g><g><ellipse rx="42.5" ry="62.5" transform="matrix(.347-.9379 0.9379 0.347 1358.625609 456.568933)" fill="#f5e8c7"/><ellipse rx="62.5" ry="42.5" transform="matrix(.9379-.347 0.347 0.9379 1641.460161 456.638293)" fill="#f5e8c7"/></g></g><path d="M1500,628c63.7.5,99,26.6,99,54.4c0,34.4-80,62.6-99,68.8-19-6.2-99-34.5-99-68.8c0-27.8,35.3-53.9,99-54.4Z" fill="#39001b"/></g><g><path d="M1243,299.4c-16.8,1.4-24.9,19.4-34.8,33.1-45.2,62.8-93.5,124-138.7,186.9" opacity="0.2" fill="#39001b"/><path d="M1757,299.4c16.8,1.4,24.9,19.4,34.8,33.1c45.2,62.8,93.5,124,138.7,186.9" opacity="0.2" fill="#39001b"/><path d="M2061,746.4c0,0,12,128-173,256-136,94.1-353.9,93.7-386,93.1v-.1c0,0-.7,0-2,.1-1.3,0-2-.1-2-.1v.1c-32.1.6-250,1-386-93.1-185-128-173-256-173-256-55.8,86.8,69.3,455,559,468.9v.1c.7,0,1.3,0,2-.1.7,0,1.3,0,2,.1v-.1c489.7-14,614.8-382.2,559-468.9Z" opacity="0.2" fill="#39001b"/><path d="M1558.3,864.3c-37.6,12.9-79.5,13-117.2.4c6.9,10.9,15.7,20.7,25.5,29.1c9.8,8.5,22.1,14.5,35,14.7c12.6.2,24.9-5.3,34.4-13.4c9.7-8.2,16.9-19.5,22.3-30.8Z" opacity="0.2" fill="#39001b"/><path d="M1697.1,735c4,12-3.5,26.3-14.6,33.1-12,7.4-26.7,8.3-40.8,8.7-45,1.2-90.1-1.2-134.8-7-.7.5-2.5.3-4.4-.1c0-.4,0-.9,0-1.3-.5.1-1.6.4-2.8.7-1.2-.3-2.3-.6-2.8-.7c0,.4,0,.9,0,1.3-1.9.4-3.7.6-4.4.1-44.6,5.8-89.8,8.2-134.8,7-14.1-.4-28.8-1.3-40.8-8.7-11.1-6.8-18.6-21.1-14.6-33.1-3.4,8.1-7.2,15.4-6.4,24.3c1.3,14.2,12.1,26.1,24.9,32.5c12.8,6.3,27.3,7.9,41.6,8.8c44.5,2.9,93.3.2,137.2-8c43.9,8.2,92.7,10.9,137.2,8c14.2-.9,28.8-2.5,41.6-8.8s23.6-18.3,24.9-32.5c1-8.9-2.8-16.2-6.2-24.3Z" opacity="0.2" fill="#39001b"/></g><g><path d="M1734.8,292.4l-27-16.6" opacity="0.5" fill="#fff"/><path d="M2061.2,694.8c-.9-.5-61.1-30.4-138.5-146.5-78-117-146.4-213-220-228-93.5-19.1-185.4,26.2-201.5,34.7-.5.2-.9.5-1.2.7-.3-.2-.8-.4-1.2-.7-16.1-8.5-108-53.7-201.5-34.7-73.6,15-142,111-220,228-77.4,116.1-137.5,146-138.5,146.5c110.5-107.5,220.5-344.5,319-397.4c93.2-50,227.9,13.2,242.2,20.3c14.3-7,149-70.3,242.2-20.3c98.6,53,208.5,289.9,319,397.4Z" opacity="0.5" fill="#fff"/><path d="M1265.2,292.4l27-16.6" opacity="0.5" fill="#fff"/><path d="M1579,672.4c0,1.3-1.2,4.2-5.2,8.5-9.9-11.3-34-22.5-73.8-22.8-39.8.4-63.9,11.5-73.8,22.8-4-4.2-5.2-7.2-5.2-8.5c0-13.6,25.1-33.9,79-34.4c53.9.5,79,20.8,79,34.4Z" opacity="0.5" fill="#fff"/><path d="M1697.6,798.1c-14.4,14.1-34.2,21.7-54.2,24.6s-40.3,1.7-60.4.4c-27.7-1.7-55.3-3.5-83-5.2-27.7,1.8-55.3,3.5-83,5.2-20.1,1.3-40.4,2.5-60.4-.4-20-3-39.8-10.5-54.2-24.6s-22.5-35.6-17.4-55.1c-1.3,22,16.3,39.5,36.1,49.2c19.7,9.7,42.5,10.9,64.4,11c35.2.1,71-.8,106-5.3c2.8-.4,5.6-.8,8.4-1.2c2.8.4,5.6.8,8.4,1.2c35,4.6,70.8,5.5,106,5.3c22-.1,44.7-1.3,64.4-11s37.4-27.2,36.1-49.2c5.2,19.5-2.8,41-17.2,55.1Z" opacity="0.5" fill="#fff"/></g><g><path d="M1500,318.5c58.1-29.3,132.1-48.3,198.8-34.8c41.1,8.3,79.5,29,109.7,67.2c57.2,72.4,105,150.3,163.8,231.8c26.5,36.7,55.3,74.2,88.2,112.2c140.8,162.8-100.8,549.4-560.5,550.5" fill="none" stroke="#39001b" stroke-width="20" stroke-linecap="round" stroke-miterlimit="10"/><path d="" fill="none" stroke="#39001b" stroke-width="20" stroke-miterlimit="10"/><path d="" fill="none" stroke="#39001b" stroke-width="20" stroke-miterlimit="10"/><path d="M1498,628c.7,0,1.3,0,2,0c63.7.5,99,26.6,99,54.4c0,34.4-80,62.6-99,68.8-2.6.8-4,1.3-4,1.3" fill="none" stroke="#39001b" stroke-width="20" stroke-miterlimit="10"/><path d="M1500.1,793.4c100.8,1,227.7,37.4,206.9-63.3" fill="none" stroke="#39001b" stroke-width="20" stroke-miterlimit="10"/><path d="M1496,793.4c1.3,0,2.6,0,3.9,0" fill="none" stroke="#39001b" stroke-width="20" stroke-miterlimit="10"/><g><path d="M1672.5,728.2c1.3-1.4,2.8-2.4,4.3-3.4s3.1-1.8,4.7-2.5c3.3-1.4,6.7-2.3,10.1-2.8c6.9-1,14.1-.3,20.7,1.7c6.7,2.1,12.9,5.5,18.1,10.3c2.6,2.4,4.9,5.1,6.8,8.1.9,1.5,1.8,3.1,2.5,4.7.7,1.7,1.3,3.4,1.6,5.3-1-.1-1.8-.3-2.7-.5s-1.7-.3-2.5-.6c-1.7-.4-3.2-.8-4.8-1.1-3.1-.8-6-1.5-8.8-2.3-5.6-1.6-10.8-3.1-16.1-4.8-5.2-1.6-10.4-3.3-15.9-5.2-2.8-.9-5.6-2-8.6-3-1.5-.6-3-1.1-4.6-1.8-1.4-.6-3-1.2-4.8-2.1Z" fill="#39001b"/></g><path d="M1500,318.5c-58.1-29.3-132.1-48.3-198.8-34.8-41.1,8.3-79.5,29-109.7,67.2-57.2,72.4-105,150.3-163.8,231.8-26.5,36.7-55.3,74.2-88.2,112.2-140.8,162.8,100.8,549.4,560.5,550.5" fill="none" stroke="#39001b" stroke-width="20" stroke-miterlimit="10"/><path d="" fill="none" stroke="#39001b" stroke-width="20" stroke-miterlimit="10"/><path d="" fill="none" stroke="#39001b" stroke-width="20" stroke-miterlimit="10"/><path d="M1502,628c-.7,0-1.3,0-2,0-63.7.5-99,26.6-99,54.4c0,34.4,80,62.6,99,68.8c2.6.8,4,1.3,4,1.3" fill="none" stroke="#39001b" stroke-width="20" stroke-miterlimit="10"/><path d="M1500.1,793.4c-.1,0-.2,0-.2,0-100.8,1-227.7,37.4-206.9-63.3" fill="none" stroke="#39001b" stroke-width="20" stroke-miterlimit="10"/><g><path d="M1327.5,728.2c-1.7.8-3.4,1.5-4.9,2.1-1.6.6-3.1,1.2-4.6,1.8-3,1.1-5.8,2.1-8.6,3-5.5,1.9-10.7,3.5-15.9,5.2-5.2,1.6-10.5,3.2-16.1,4.8-2.8.8-5.7,1.5-8.8,2.3-1.6.4-3.1.8-4.8,1.1-.8.2-1.7.4-2.5.6-.9.2-1.8.4-2.7.5.3-1.9.9-3.6,1.6-5.3s1.6-3.2,2.5-4.7c1.9-3,4.2-5.7,6.8-8.1c5.2-4.8,11.4-8.2,18.1-10.3s13.8-2.7,20.7-1.7c3.5.5,6.9,1.4,10.1,2.8c1.6.7,3.2,1.5,4.7,2.5c1.6,1,3,2.1,4.4,3.4Z" fill="#39001b"/></g><g><path d="M1437,863.4c5.8,0,11.2.1,16.6.2l16,.4c10.5.3,20.8.5,31.1.4c10.2-.1,20.4-.3,30.7-.6l15.8-.4c5.4,0,10.8-.4,16.8-.1-1,1.1-2.1,2-3.2,3l-1.7,1.4c-.6.4-1.2.8-1.7,1.3-1.2.8-2.4,1.6-3.6,2.4-1.2.7-2.5,1.5-3.7,2.2-2.5,1.4-5.1,2.6-7.7,3.7-1.3.6-2.7,1-4,1.5s-2.7,1-4.1,1.4-2.7.8-4.1,1.2c-1.4.3-2.8.7-4.2,1s-2.8.6-4.2.8-2.8.5-4.2.6c-5.7.7-11.4.9-17,.7-11.4-.4-22.6-2.2-33.4-5.6-5.4-1.7-10.6-3.8-15.7-6.3-1.3-.6-2.5-1.3-3.8-2-1.2-.7-2.5-1.4-3.7-2.2-2.5-1.5-4.8-3.1-7-5Z" fill="#39001b"/></g><line x1="1500" y1="751.4" x2="1500" y2="792.4" fill="none" stroke="#39001b" stroke-width="20" stroke-linecap="round" stroke-miterlimit="10"/><g><path d="M1929.2,520.4c0,0-60-89-98-145s-79-74-79-74" fill="none" stroke="#39001b" stroke-width="14" stroke-linecap="round" stroke-miterlimit="10"/><path d="M1070.8,520.4c0,0,60-89,98-145s79-74,79-74" fill="none" stroke="#39001b" stroke-width="14" stroke-linecap="round" stroke-miterlimit="10"/></g></g><g id="ebxntNiqWjI234_to" transform="translate(1398.327271,736.071289)"><g transform="translate(-1398.327271,-736.071289)"><g><path d="M1370,785.5c-19-5.2-58.2-81-13-102.2c17-8,44-6,64,42s39.6,58,39.6,58-74,6.7-90.6,2.2Z" fill="none" stroke="#39001b" stroke-width="14" stroke-linecap="round" stroke-miterlimit="10"/><g><path d="M1372.5,718.3c4.4,12,10.3,23.3,17.3,33.7s15.2,19.8,24.1,28.5c2.8,2.7,2.8,7.2.1,9.9-3,3.2-8.3,2.7-10.8-.9-15.1-21.2-26.4-45.6-30.7-71.2v0Z" fill="#39001b"/></g></g><path d="M1421,725.2c20,48,39.6,58,39.6,58s-74,6.8-90.6,2.2c-19-5.2-58.2-81-13-102.2c17-8,44-6,64,42Z" fill="#f675a8"/><path d="M1381.5,783.7c-17.4-18.4-28.8-42.4-32-67.4c6.2,12.5,17,20.3,30.5,23.9c8,13.9,16.5,27.9,27,40c5.3,1,11.7.4,17-.1-14.6-10.3-27.2-24.3-35.5-40.2c7.1,3.7,15.2,3.6,22.5.3c7.2,15.5,18.2,28.7,30.6,40.4-19.9.4-40.1,1-60.1,3.1Z" opacity="0.2" fill="#39001b"/><path d="M1341.3,704.4c2.9-11.6,14.5-19.9,26.4-20.8s23.7,4.8,32.2,13.2s14.1,19.4,18.1,30.7c-2.6-4.2-5.7-7.1-8.9-10.8-8.3-9.7-20.6-15.9-33.4-16.7s-25.8,3.9-35.2,12.5c-1-5.6-.6-2.5.8-8.1Z" opacity="0.5" fill="#fff"/></g></g><g id="ebxntNiqWjI242_tr" transform="translate(1303.549988,545.700714) rotate(0)"><g transform="translate(-1303.549988,-545.700714)"><g><path d="M1374.1,569.5c-13.2-.4-25.8-3.7-37.4-8.7-5.2-2.3-10.5-4.9-15.8-7-16.9-6.8-34.5-11.3-52.7-13.1-6.3-.7-13.1-1-19.5-1.2-5.2-.1-10.3.1-15.7,0c27.7-20,65.3-21.9,97-11c6.3,2.2,12.9,4.8,18.8,8.1c12.2,7,22.8,18.5,25.3,32.9v0Z" fill="#39001b"/></g></g></g><g id="ebxntNiqWjI245_tr" transform="translate(1690.599976,545.686584) rotate(0)"><g transform="translate(-1690.599976,-545.686584)"><path d="M1620.1,569.5c2.5-14.4,13.1-25.9,25.2-32.9c5.9-3.2,12.4-5.9,18.8-8.1c31.7-10.9,69.4-9.1,97,11-5.4.1-10.4-.1-15.7,0-6.4.2-13.1.5-19.5,1.2-18.2,1.8-35.8,6.4-52.7,13.1-5.3,2-10.6,4.7-15.8,7-11.5,5-24.1,8.3-37.3,8.7v0Z" fill="#39001b"/></g></g></g></g></g></g></g><g id="ebxntNiqWjI247_tr" transform="translate(695.982972,2063.00655) rotate(1.761073)"><g transform="translate(-1445.999995,-2160.199998)"><path d="M1542.4,2265c4.4,20.1,7.8,41.3,7.3,61.9c81.1,28,171,29.9,253.2,5.4-22.4,2.9-46.2,4.5-68.6,2.3-22.5-2.2-44.9-8.8-63.4-21.8c5.6-5,11-6.7,18.5-6.7c7,0,15.3,1.1,18.3,7.4c1.7-10.1,0-19.9-4.3-29.2c2.6-1.8,6.9-3.8,10.1-3.9c1,5.1,2.6,9.9,3.6,14.9c1.9-3.6,6-6.5,9.4-8.8c15.4-10.2,34.6-14.5,52.9-12-10.9-19.8-31.4-32.6-54-34.3-12.1,14.3-31.2,20.4-49.6,24.2-44,9.3-89.6,11.5-133.4.6Z" opacity="0.2" fill="#39001b"/><path d="M1388.3,2135.4c43.9,51,102.8,88.9,167.5,107.5c39.1,11.3,81.6,15.5,120.2,2.8c16.6-5.5,33.3-15.2,39.6-31.5-47.9,16.4-102.1,16.7-151.4,5.2s-95.5-34.2-137.7-62.3c-3.8-27.9,7.3-55.6,16.4-82.1-16.3,20.9-25.9,46.8-27.3,73.2-9.7-3.9-19-6.3-27.3-12.8Z" opacity="0.2" fill="#39001b"/><path d="M1720.6,2184.2c-10.4-11.7-25.7-17.6-38.5-26.6-24-16.9-39.1-46-39.1-75.4c5.6,14.1,14.8,25.7,26.8,34.9c10.9,8.3,23.8,14,33.7,23.5c13.7,13.1,20.5,32.5,20.4,51.4-1.4-3.3-.9-5.2-3.3-7.8Z" opacity="0.2" fill="#39001b"/><path d="M1546.2,2172.5c25.6,7,52.2,10.6,78.8,10.8c13.9.1,27.9-.7,41.6,1.3c13.8,2,27.6,7.3,36.9,17.6-26.1-7.6-54.4-6.7-81.4-9-27.1-2.2-52.6-6.9-75.9-20.7Z" opacity="0.5" fill="#fff"/><g><path d="M1372.8,2131.4c24.1,23.3,47,47.3,73.7,67.5c45.8,34.3,101,56,157.9,61.3c34,2.7,85.8,3.6,108.4-25.6c0,0,3.9-4.7,3.9-4.7c15.3.9,30.5,6.4,42.2,16.1c10.2,8.2,17.9,18.8,23.5,30.3-15.4-17.8-37.8-30.2-61.3-26c0,0,8.1-4.3,8-4.2-20.5,30.3-59.8,37.5-93.8,38.2-72.4,1.8-144.9-24.6-200.6-70.5-26.9-21.8-50.9-49.1-61.9-82.4v0Z" fill="#39001b"/></g><g><path d="M1643,2078.2c4.1,29.4,17.5,56.3,40.7,74.3c10.6,8.2,23.3,14.4,32.9,24.4c7.4,7.7,13.6,18.3,12.4,29.3-3.2-8.2-8.5-14-15-18.9-9.3-7.1-19.6-11.1-30.1-17.1-6.1-3.5-12.3-7.8-17.6-12.9-20.7-20-31.6-51.2-23.3-79.1v0Z" fill="#39001b"/></g><g><path d="M1569.5,2064c-.3,28.4,7.7,56.1,24.1,79.2c5.4,7.6,11.6,14.7,18.6,21.5-35.7-16.8-55.4-63.2-42.7-100.7v0Z" fill="#39001b"/></g><g><path d="M1708.5,2316.2c-.3-9.8-3.3-19-8-26.7s-11.1-13.9-18.2-17.9l13.2-15c14.1,16.5,19.4,39.6,13,59.6v0Z" fill="#39001b"/></g><g><path d="M1406.8,2063.3c41.1,3.2,87.4,20.8,120.1,46c4.9,3.8,9.6,7.9,14,12.5-23.1-8.2-44.9-18.9-67.2-28.9-21.8-10-45.1-19.5-66.9-29.6v0Z" fill="#39001b"/></g><g><path d="M1585.5,2095.9c9.4,15.4,20.1,29.1,34.2,40.3c4.6,3.7,9.5,7.1,14.6,10.7-24.9-2.2-47.6-26-48.8-51v0Z" fill="#39001b"/></g><g><path d="M1481.3,2043.8c2.1,20.7-7.2,40.3-14.2,59.1-6.7,18.4-11.7,38.2-4.2,57.3-6.9-7.9-9.6-19-9.5-29.4.1-31.6,21.6-56.8,27.9-87v0Z" fill="#39001b"/></g></g></g></svg>
